<svg width="65" height="66" viewBox="0 0 65 66" fill="none" xmlns="http://www.w3.org/2000/svg">
<path opacity="0.21" d="M0.504028 25.0613C0.504028 11.5947 11.4208 0.677948 24.8873 0.677948H40.506C53.9725 0.677948 64.8893 11.5947 64.8893 25.0613V40.6799C64.8893 54.1464 53.9725 65.0632 40.506 65.0632H24.8873C11.4208 65.0632 0.504028 54.1465 0.504028 40.6799V25.0613Z" fill="#8280FF"/>
<path d="M33.4214 14.3535H32.2267V16.1455H33.4214V14.3535Z" fill="#4644B1"/>
<path d="M24.4615 23.9107H22.6696V25.1054H24.4615V23.9107Z" fill="#4644B1"/>
<path d="M42.9786 23.9107H41.1866V25.1054H42.9786V23.9107Z" fill="#4644B1"/>
<path d="M39.5819 16.9056L38.3149 18.1725L39.1596 19.0172L40.4265 17.7502L39.5819 16.9056Z" fill="#4644B1"/>
<path d="M26.0662 16.9055L25.2216 17.7502L26.4886 19.0172L27.3332 18.1725L26.0662 16.9055Z" fill="#4644B1"/>
<path d="M33.4214 27.4946H32.2267C31.91 27.4942 31.6064 27.3682 31.3825 27.1443C31.1585 26.9203 31.0325 26.6167 31.0321 26.3H29.8374C29.8381 26.9335 30.09 27.5408 30.538 27.9888C30.9859 28.4367 31.5933 28.6887 32.2267 28.6893V29.2866H33.4214V28.6893C34.0551 28.6893 34.6628 28.4376 35.1109 27.9895C35.559 27.5414 35.8107 26.9337 35.8107 26.3C35.8107 25.6663 35.559 25.0586 35.1109 24.6105C34.6628 24.1624 34.0551 23.9107 33.4214 23.9107H32.2267C31.9099 23.9107 31.606 23.7848 31.382 23.5608C31.158 23.3368 31.0321 23.0329 31.0321 22.7161C31.0321 22.3992 31.158 22.0953 31.382 21.8713C31.606 21.6473 31.9099 21.5214 32.2267 21.5214H33.4214C33.7381 21.5218 34.0417 21.6478 34.2657 21.8718C34.4896 22.0957 34.6156 22.3993 34.616 22.7161H35.8107C35.8101 22.0826 35.5581 21.4752 35.1102 21.0273C34.6622 20.5793 34.0549 20.3274 33.4214 20.3268V19.7294H32.2267V20.3268C31.5931 20.3268 30.9853 20.5785 30.5373 21.0266C30.0892 21.4746 29.8374 22.0824 29.8374 22.7161C29.8374 23.3497 30.0892 23.9575 30.5373 24.4055C30.9853 24.8536 31.5931 25.1054 32.2267 25.1054H33.4214C33.7382 25.1054 34.0421 25.2312 34.2661 25.4553C34.4902 25.6793 34.616 25.9832 34.616 26.3C34.616 26.6168 34.4902 26.9207 34.2661 27.1447C34.0421 27.3688 33.7382 27.4946 33.4214 27.4946Z" fill="#4644B1"/>
<path d="M35.8107 33.4679V35.8572C35.8106 35.9357 35.8261 36.0133 35.8561 36.0858C35.8861 36.1583 35.9301 36.2242 35.9855 36.2797C36.041 36.3351 36.1069 36.3791 36.1794 36.4091C36.2519 36.4391 36.3296 36.4546 36.408 36.4545H38.7973C38.8758 36.4546 38.9535 36.4391 39.0259 36.4091C39.0984 36.3791 39.1643 36.3351 39.2198 36.2797C39.2753 36.2242 39.3192 36.1583 39.3493 36.0858C39.3793 36.0133 39.3947 35.9357 39.3946 35.8572V33.4679C39.3947 33.3894 39.3793 33.3118 39.3493 33.2393C39.3192 33.1668 39.2753 33.1009 39.2198 33.0454C39.1643 32.99 39.0984 32.946 39.0259 32.916C38.9535 32.886 38.8758 32.8705 38.7973 32.8706H36.408C36.3296 32.8705 36.2519 32.886 36.1794 32.916C36.1069 32.946 36.041 32.99 35.9855 33.0454C35.9301 33.1009 35.8861 33.1668 35.8561 33.2393C35.8261 33.3118 35.8106 33.3894 35.8107 33.4679ZM37.0053 34.0652H38.2V35.2599H37.0053V34.0652Z" fill="#4644B1"/>
<path d="M34.0187 32.8706H31.6294C31.5509 32.8705 31.4733 32.886 31.4008 32.916C31.3283 32.946 31.2624 32.99 31.2069 33.0454C31.1515 33.1009 31.1075 33.1668 31.0775 33.2393C31.0474 33.3118 31.032 33.3894 31.0321 33.4679V41.8304C31.032 41.9089 31.0474 41.9866 31.0775 42.0591C31.1075 42.1316 31.1515 42.1974 31.2069 42.2529C31.2624 42.3084 31.3283 42.3524 31.4008 42.3824C31.4733 42.4124 31.5509 42.4278 31.6294 42.4278H34.0187C34.0972 42.4278 34.1748 42.4124 34.2473 42.3824C34.3198 42.3524 34.3857 42.3084 34.4412 42.2529C34.4966 42.1974 34.5406 42.1316 34.5706 42.0591C34.6006 41.9866 34.6161 41.9089 34.616 41.8304V33.4679C34.6161 33.3894 34.6006 33.3118 34.5706 33.2393C34.5406 33.1668 34.4966 33.1009 34.4412 33.0454C34.3857 32.99 34.3198 32.946 34.2473 32.916C34.1748 32.886 34.0972 32.8705 34.0187 32.8706ZM33.4214 41.2331H32.2267V34.0652H33.4214V41.2331Z" fill="#4644B1"/>
<path d="M29.2401 32.8706H26.8508C26.7724 32.8705 26.6947 32.886 26.6222 32.916C26.5497 32.946 26.4838 32.99 26.4283 33.0454C26.3729 33.1009 26.3289 33.1668 26.2989 33.2393C26.2689 33.3118 26.2534 33.3894 26.2535 33.4679V35.8572C26.2534 35.9357 26.2689 36.0133 26.2989 36.0858C26.3289 36.1583 26.3729 36.2242 26.4283 36.2797C26.4838 36.3351 26.5497 36.3791 26.6222 36.4091C26.6947 36.4391 26.7724 36.4546 26.8508 36.4545H29.2401C29.3186 36.4546 29.3963 36.4391 29.4688 36.4091C29.5412 36.3791 29.6071 36.3351 29.6626 36.2797C29.7181 36.2242 29.7621 36.1583 29.7921 36.0858C29.8221 36.0133 29.8375 35.9357 29.8374 35.8572V33.4679C29.8375 33.3894 29.8221 33.3118 29.7921 33.2393C29.7621 33.1668 29.7181 33.1009 29.6626 33.0454C29.6071 32.99 29.5412 32.946 29.4688 32.916C29.3963 32.886 29.3186 32.8705 29.2401 32.8706ZM28.6428 35.2599H27.4481V34.0652H28.6428V35.2599Z" fill="#4644B1"/>
<path d="M19.6829 47.8037H22.0722C22.1507 47.8037 22.2284 47.7883 22.3009 47.7583C22.3734 47.7283 22.4392 47.6843 22.4947 47.6289C22.5502 47.5734 22.5942 47.5075 22.6242 47.435C22.6542 47.3625 22.6696 47.2848 22.6695 47.2064V44.8171C22.6696 44.7386 22.6542 44.6609 22.6242 44.5884C22.5942 44.516 22.5502 44.4501 22.4947 44.3946C22.4392 44.3391 22.3734 44.2951 22.3009 44.2651C22.2284 44.2351 22.1507 44.2197 22.0722 44.2198H19.6829C19.6045 44.2197 19.5268 44.2351 19.4543 44.2651C19.3818 44.2951 19.3159 44.3391 19.2605 44.3946C19.205 44.4501 19.161 44.516 19.131 44.5884C19.101 44.6609 19.0856 44.7386 19.0856 44.8171V47.2064C19.0856 47.2848 19.101 47.3625 19.131 47.435C19.161 47.5075 19.205 47.5734 19.2605 47.6289C19.3159 47.6843 19.3818 47.7283 19.4543 47.7583C19.5268 47.7883 19.6045 47.8037 19.6829 47.8037ZM20.2803 45.4144H21.4749V46.6091H20.2803V45.4144Z" fill="#4644B1"/>
<path d="M38.7973 38.2465H36.408C36.3296 38.2465 36.2519 38.2619 36.1794 38.2919C36.1069 38.3219 36.041 38.3659 35.9855 38.4214C35.9301 38.4768 35.8861 38.5427 35.8561 38.6152C35.8261 38.6877 35.8106 38.7654 35.8107 38.8438V41.2331C35.8106 41.3116 35.8261 41.3893 35.8561 41.4618C35.8861 41.5343 35.9301 41.6001 35.9855 41.6556C36.041 41.7111 36.1069 41.7551 36.1794 41.7851C36.2519 41.8151 36.3296 41.8305 36.408 41.8305H38.7973C38.8758 41.8305 38.9535 41.8151 39.0259 41.7851C39.0984 41.7551 39.1643 41.7111 39.2198 41.6556C39.2753 41.6001 39.3192 41.5343 39.3493 41.4618C39.3793 41.3893 39.3947 41.3116 39.3946 41.2331V38.8438C39.3947 38.7654 39.3793 38.6877 39.3493 38.6152C39.3192 38.5427 39.2753 38.4768 39.2198 38.4214C39.1643 38.3659 39.0984 38.3219 39.0259 38.2919C38.9535 38.2619 38.8758 38.2465 38.7973 38.2465ZM38.2 40.6358H37.0053V39.4412H38.2V40.6358Z" fill="#4644B1"/>
<path d="M43.5759 47.8037H45.9652C46.0437 47.8037 46.1214 47.7883 46.1939 47.7583C46.2663 47.7283 46.3322 47.6843 46.3877 47.6289C46.4432 47.5734 46.4872 47.5075 46.5172 47.435C46.5472 47.3625 46.5626 47.2848 46.5625 47.2064V44.8171C46.5626 44.7386 46.5472 44.6609 46.5172 44.5884C46.4872 44.516 46.4432 44.4501 46.3877 44.3946C46.3322 44.3391 46.2663 44.2951 46.1939 44.2651C46.1214 44.2351 46.0437 44.2197 45.9652 44.2198H43.5759C43.4975 44.2197 43.4198 44.2351 43.3473 44.2651C43.2748 44.2951 43.2089 44.3391 43.1534 44.3946C43.098 44.4501 43.054 44.516 43.024 44.5884C42.994 44.6609 42.9785 44.7386 42.9786 44.8171V47.2064C42.9785 47.2848 42.994 47.3625 43.024 47.435C43.054 47.5075 43.098 47.5734 43.1534 47.6289C43.2089 47.6843 43.2748 47.7283 43.3473 47.7583C43.4198 47.7883 43.4975 47.8037 43.5759 47.8037ZM44.1732 45.4144H45.3679V46.6091H44.1732V45.4144Z" fill="#4644B1"/>
<path d="M29.2401 38.2465H26.8508C26.7724 38.2465 26.6947 38.2619 26.6222 38.2919C26.5497 38.3219 26.4838 38.3659 26.4283 38.4214C26.3729 38.4768 26.3289 38.5427 26.2989 38.6152C26.2689 38.6877 26.2534 38.7654 26.2535 38.8438V41.2331C26.2534 41.3116 26.2689 41.3893 26.2989 41.4618C26.3289 41.5343 26.3729 41.6001 26.4283 41.6556C26.4838 41.7111 26.5497 41.7551 26.6222 41.7851C26.6947 41.8151 26.7724 41.8305 26.8508 41.8305H29.2401C29.3186 41.8305 29.3963 41.8151 29.4688 41.7851C29.5412 41.7551 29.6071 41.7111 29.6626 41.6556C29.7181 41.6001 29.7621 41.5343 29.7921 41.4618C29.8221 41.3893 29.8375 41.3116 29.8374 41.2331V38.8438C29.8375 38.7654 29.8221 38.6877 29.7921 38.6152C29.7621 38.5427 29.7181 38.4768 29.6626 38.4214C29.6071 38.3659 29.5412 38.3219 29.4688 38.2919C29.3963 38.2619 29.3186 38.2465 29.2401 38.2465ZM28.6428 40.6358H27.4481V39.4412H28.6428V40.6358Z" fill="#4644B1"/>
<path d="M50.6434 42.0964L48.2541 38.5125C48.1996 38.4307 48.1257 38.3636 48.039 38.3172C47.9523 38.2708 47.8555 38.2465 47.7572 38.2465H45.3679V36.7412C45.9232 37.0176 46.5516 37.1118 47.1636 37.0105C47.7756 36.9092 48.3401 36.6175 48.7768 36.1768C48.8323 36.1214 48.8763 36.0556 48.9063 35.9831C48.9363 35.9106 48.9518 35.833 48.9518 35.7545C48.9518 35.6761 48.9363 35.5984 48.9063 35.5259C48.8763 35.4535 48.8323 35.3876 48.7768 35.3322L47.4584 34.014L48.1795 33.2929L47.3349 32.4483L46.6137 33.1694L45.3976 31.9536C45.3422 31.8981 45.2763 31.8541 45.2039 31.8241C45.1314 31.794 45.0537 31.7786 44.9753 31.7786C44.8968 31.7786 44.8192 31.794 44.7467 31.8241C44.6742 31.8541 44.6084 31.8981 44.553 31.9536C44.0671 32.4408 43.764 33.0805 43.6949 33.7651C43.6257 34.4496 43.7946 35.1371 44.1732 35.7116V38.2465H41.7839V28.6893C41.784 28.6108 41.7685 28.5331 41.7385 28.4606C41.7085 28.3882 41.6645 28.3223 41.6091 28.2668C41.5536 28.2113 41.4877 28.1673 41.4152 28.1373C41.3427 28.1073 41.265 28.0919 41.1866 28.092H39.0222C39.655 27.0026 39.9895 25.7657 39.9919 24.5058C39.9944 23.246 39.6648 22.0078 39.0363 20.9159C38.4078 19.8241 37.5027 18.9171 36.4121 18.2865C35.3214 17.6559 34.0839 17.3239 32.8241 17.3239C31.5642 17.3239 30.3267 17.6559 29.236 18.2865C28.1454 18.9171 27.2403 19.8241 26.6118 20.9159C25.9833 22.0078 25.6537 23.246 25.6562 24.5058C25.6587 25.7657 25.9931 27.0026 26.6259 28.092H24.4615C24.3831 28.0919 24.3054 28.1073 24.2329 28.1373C24.1604 28.1673 24.0945 28.2113 24.039 28.2668C23.9836 28.3223 23.9396 28.3882 23.9096 28.4606C23.8796 28.5331 23.8641 28.6108 23.8642 28.6893V38.2465H21.5776V35.7106C21.957 35.1365 22.1263 34.4489 22.057 33.7643C21.9877 33.0796 21.684 32.44 21.1972 31.9536C21.1418 31.8981 21.0759 31.8541 21.0035 31.8241C20.931 31.794 20.8533 31.7786 20.7749 31.7786C20.6965 31.7786 20.6188 31.794 20.5463 31.8241C20.4739 31.8541 20.408 31.8981 20.3526 31.9536L19.1369 33.1692L18.416 32.4483L17.5713 33.2929L18.2922 34.0138L16.974 35.3321C16.9185 35.3876 16.8745 35.4534 16.8444 35.5259C16.8144 35.5984 16.799 35.676 16.799 35.7545C16.799 35.8329 16.8144 35.9106 16.8444 35.983C16.8745 36.0555 16.9185 36.1213 16.974 36.1768C17.4103 36.6179 17.9746 36.9101 18.5867 37.0119C19.1988 37.1136 19.8273 37.0197 20.3829 36.7435V38.2465H17.8909C17.7926 38.2465 17.6958 38.2708 17.6091 38.3172C17.5224 38.3636 17.4485 38.4307 17.394 38.5125L15.0047 42.0964C14.9447 42.1864 14.9102 42.2909 14.905 42.3989C14.8998 42.5069 14.924 42.6143 14.975 42.7096C15.026 42.8049 15.1019 42.8846 15.1947 42.9402C15.2874 42.9957 15.3935 43.0251 15.5016 43.0251H16.6963V49.5956C16.6962 49.6741 16.7117 49.7518 16.7417 49.8243C16.7717 49.8968 16.8157 49.9626 16.8711 50.0181C16.9266 50.0736 16.9925 50.1176 17.065 50.1476C17.1375 50.1776 17.2152 50.193 17.2936 50.193H48.3545C48.4329 50.193 48.5106 50.1776 48.5831 50.1476C48.6556 50.1176 48.7215 50.0736 48.777 50.0181C48.8324 49.9626 48.8764 49.8968 48.9064 49.8243C48.9364 49.7518 48.9519 49.6741 48.9518 49.5956V43.0251H50.1465C50.2546 43.0251 50.3607 42.9957 50.4534 42.9402C50.5462 42.8846 50.6221 42.8049 50.6731 42.7096C50.7241 42.6143 50.7483 42.5069 50.7431 42.3989C50.7379 42.2909 50.7034 42.1864 50.6434 42.0964ZM20.3526 35.3322C20.0877 35.5898 19.7511 35.7612 19.387 35.8237C19.0229 35.8863 18.6483 35.8372 18.3127 35.6828L20.7032 33.2923C20.8626 33.6269 20.9145 34.0026 20.8517 34.3679C20.7889 34.7331 20.6145 35.07 20.3526 35.3322ZM23.8642 48.9983H17.8909V43.0251H23.8642V48.9983ZM23.8642 41.8304H16.6175L18.2106 39.4411H23.8642V41.8304ZM32.8241 18.5348C34.0054 18.5348 35.1603 18.8851 36.1426 19.5414C37.1249 20.1978 37.8905 21.1307 38.3426 22.2222C38.7947 23.3136 38.913 24.5146 38.6825 25.6733C38.452 26.832 37.8831 27.8964 37.0478 28.7317C36.2124 29.5671 35.1481 30.136 33.9894 30.3665C32.8307 30.597 31.6297 30.4787 30.5382 30.0266C29.4467 29.5745 28.5138 28.8089 27.8575 27.8266C27.2011 26.8443 26.8508 25.6894 26.8508 24.508C26.8527 22.9244 27.4826 21.4061 28.6024 20.2864C29.7222 19.1666 31.2404 18.5366 32.8241 18.5348ZM32.2267 48.9983H30.4348V46.0117C30.4352 45.6515 30.5785 45.3062 30.8332 45.0515C31.0878 44.7969 31.4331 44.6536 31.7933 44.6531H32.2267V48.9983ZM35.2133 48.9983H33.4214V44.6531H33.8548C34.215 44.6536 34.5603 44.7969 34.8149 45.0515C35.0696 45.3062 35.2129 45.6515 35.2133 46.0117V48.9983ZM40.5893 48.9983H36.408V46.0117C36.4071 45.3348 36.1379 44.6859 35.6592 44.2073C35.1806 43.7286 34.5317 43.4593 33.8548 43.4585H31.7933C31.1164 43.4593 30.4675 43.7286 29.9889 44.2073C29.5102 44.6859 29.241 45.3348 29.2401 46.0117V48.9983H25.0588V29.2866H27.4965C28.1658 30.0381 28.9865 30.6394 29.9046 31.0512C30.8228 31.463 31.8177 31.6759 32.8241 31.6759C33.8304 31.6759 34.8253 31.463 35.7435 31.0512C36.6616 30.6394 37.4823 30.0381 38.1516 29.2866H40.5893V48.9983ZM45.0476 33.2929L47.4381 35.6828C47.1023 35.837 46.7278 35.886 46.3636 35.8235C45.9994 35.7609 45.6627 35.5896 45.3976 35.3322C45.136 35.0699 44.9619 34.7332 44.8992 34.368C44.8365 34.0029 44.8884 33.6274 45.0476 33.2929ZM47.7572 48.9983H41.7839V43.0251H47.7572V48.9983ZM41.7839 41.8304V39.4411H47.4375L49.0306 41.8304H41.7839Z" fill="#4644B1"/>
</svg>
