<svg width="62" height="61" viewBox="0 0 62 61" fill="none" xmlns="http://www.w3.org/2000/svg">
<path opacity="0.21" d="M0.878876 24.9071C0.878876 11.4406 11.7957 0.523804 25.2622 0.523804H36.8568C50.3233 0.523804 61.2401 11.4406 61.2401 24.9071V36.5017C61.2401 49.9682 50.3233 60.885 36.8568 60.885H25.2622C11.7957 60.885 0.878876 49.9682 0.878876 36.5017V24.9071Z" fill="#4AD991"/>
<g clip-path="url(#clip0_299_8944)">
<path d="M31.5625 31.3168C32.1986 31.3168 32.8205 31.1336 33.3494 30.7903C33.8783 30.4469 34.2906 29.959 34.534 29.388C34.7775 28.8171 34.8412 28.1889 34.7171 27.5828C34.593 26.9767 34.2866 26.42 33.8368 25.983C33.387 25.546 32.8139 25.2485 32.19 25.1279C31.566 25.0073 30.9193 25.0692 30.3316 25.3057C29.7439 25.5422 29.2416 25.9427 28.8882 26.4565C28.5347 26.9703 28.3461 27.5744 28.3461 28.1924C28.3471 29.0207 28.6862 29.8149 29.2892 30.4007C29.8922 30.9864 30.7097 31.3159 31.5625 31.3168ZM31.5625 26.1368C31.981 26.1368 32.3901 26.2573 32.7381 26.4832C33.0861 26.7091 33.3573 27.0301 33.5175 27.4057C33.6776 27.7813 33.7195 28.1946 33.6379 28.5934C33.5562 28.9921 33.3547 29.3584 33.0588 29.6459C32.7628 29.9334 32.3858 30.1291 31.9753 30.2084C31.5648 30.2878 31.1394 30.2471 30.7527 30.0915C30.366 29.9359 30.0356 29.6724 29.8031 29.3344C29.5705 28.9963 29.4464 28.5989 29.4464 28.1924C29.4471 27.6474 29.6703 27.1249 30.0669 26.7396C30.4636 26.3542 31.0015 26.1374 31.5625 26.1368Z" fill="#05AC58"/>
<path d="M26.9962 25.2108C26.925 25.3137 26.8927 25.4374 26.905 25.5608C26.9173 25.6842 26.9734 25.7996 27.0636 25.8873L27.249 26.0676C27.1369 26.2817 27.0419 26.5038 26.9648 26.732H26.7047C26.5771 26.732 26.4534 26.7751 26.3549 26.8539C26.2564 26.9327 26.1892 27.0424 26.1648 27.1641C26.0262 27.843 26.0262 28.5417 26.1648 29.2205C26.1892 29.3422 26.2564 29.4519 26.3549 29.5308C26.4534 29.6096 26.5771 29.6527 26.7047 29.6527H26.965C27.042 29.8809 27.1369 30.103 27.249 30.3171L27.0636 30.4974C26.9734 30.585 26.9173 30.7005 26.905 30.8239C26.8927 30.9472 26.925 31.071 26.9962 31.1738C27.3937 31.7481 27.9021 32.242 28.4933 32.6281C28.5992 32.6974 28.7265 32.7287 28.8536 32.7167C28.9806 32.7048 29.0994 32.6503 29.1896 32.5626L29.3753 32.3826C29.5956 32.4914 29.8243 32.5836 30.0592 32.6584V32.9113C30.0592 33.0353 30.1035 33.1554 30.1847 33.2511C30.2659 33.3468 30.3788 33.4121 30.5041 33.4358C31.2029 33.5705 31.9221 33.5705 32.6209 33.4358C32.7462 33.4121 32.8591 33.3468 32.9403 33.2511C33.0214 33.1554 33.0658 33.0353 33.0658 32.9113V32.6584C33.3007 32.5837 33.5294 32.4914 33.7497 32.3826L33.9354 32.5626C34.0256 32.6503 34.1444 32.7048 34.2714 32.7167C34.3984 32.7287 34.5258 32.6974 34.6317 32.6281C35.2228 32.242 35.7313 31.7481 36.1288 31.1738C36.2 31.071 36.2323 30.9472 36.22 30.8239C36.2077 30.7005 36.1516 30.585 36.0613 30.4974L35.876 30.3171C35.9881 30.103 36.083 29.8809 36.1599 29.6527H36.4202C36.5479 29.6527 36.6716 29.6096 36.7701 29.5308C36.8686 29.4519 36.9358 29.3422 36.9602 29.2205C37.0988 28.5417 37.0988 27.843 36.9602 27.1641C36.9358 27.0424 36.8686 26.9327 36.7701 26.8539C36.6716 26.7751 36.5479 26.732 36.4202 26.732H36.1602C36.083 26.5038 35.988 26.2817 35.876 26.0676L36.0613 25.8873C36.1516 25.7996 36.2077 25.6842 36.22 25.5608C36.2323 25.4374 36.2 25.3137 36.1288 25.2108C35.7313 24.6366 35.2228 24.1427 34.6317 23.7565C34.5257 23.6874 34.3984 23.6562 34.2714 23.6681C34.1444 23.6801 34.0257 23.7345 33.9354 23.822L33.7497 24.0021C33.5294 23.8933 33.3007 23.801 33.0658 23.7262V23.4734C33.0658 23.3494 33.0214 23.2292 32.9403 23.1335C32.8591 23.0378 32.7462 22.9725 32.6209 22.9488C31.9221 22.8147 31.2029 22.8147 30.5041 22.9488C30.3788 22.9725 30.2659 23.0378 30.1847 23.1335C30.1035 23.2292 30.0592 23.3494 30.0592 23.4734V23.7262C29.8243 23.801 29.5956 23.8932 29.3753 24.0021L29.1896 23.822C29.0993 23.7345 28.9805 23.6801 28.8536 23.6681C28.7266 23.6562 28.5992 23.6874 28.4933 23.7565C27.9021 24.1427 27.3937 24.6366 26.9962 25.2108ZM28.0006 27.0939C28.065 26.8977 28.1466 26.7072 28.2443 26.5245C28.3349 26.3592 28.3761 26.1726 28.3631 25.9857C28.3501 25.7989 28.2834 25.6193 28.1707 25.4674C28.3474 25.26 28.5439 25.0691 28.7574 24.8975C28.9139 25.0069 29.0988 25.0716 29.2911 25.0842C29.4835 25.0969 29.6757 25.0569 29.8459 24.969C30.0339 24.874 30.2299 24.7949 30.4318 24.7325C30.6156 24.6778 30.78 24.5743 30.9064 24.4336C31.0328 24.293 31.1163 24.1209 31.1475 23.9366C31.4235 23.91 31.7015 23.91 31.9775 23.9366C32.0086 24.1208 32.0921 24.2929 32.2185 24.4336C32.3449 24.5742 32.5092 24.6777 32.6929 24.7325C32.895 24.7949 33.0912 24.874 33.2794 24.969C33.4495 25.0571 33.6416 25.0972 33.834 25.0845C34.0264 25.0719 34.2112 25.0071 34.3676 24.8975C34.5811 25.0691 34.7775 25.2599 34.9543 25.4674C34.8415 25.6193 34.7749 25.799 34.7619 25.9859C34.7489 26.1728 34.79 26.3594 34.8807 26.5248C34.9782 26.7073 35.0596 26.8975 35.1241 27.0934C35.1803 27.2721 35.2868 27.4319 35.4316 27.5548C35.5764 27.6777 35.7536 27.7589 35.9434 27.7892C35.9571 27.9246 35.9638 28.0592 35.9638 28.1923C35.9638 28.3254 35.9571 28.4601 35.9434 28.5955C35.7538 28.6257 35.5765 28.7067 35.4318 28.8295C35.287 28.9523 35.1804 29.112 35.1241 29.2905C35.0598 29.4867 34.9784 29.6773 34.8807 29.8601C34.7901 30.0254 34.7489 30.2121 34.7619 30.3989C34.7749 30.5858 34.8416 30.7653 34.9543 30.9173C34.7776 31.1247 34.5811 31.3155 34.3676 31.4872C34.2111 31.3778 34.0262 31.3131 33.8338 31.3005C33.6415 31.2879 33.4493 31.3278 33.2791 31.4157C33.0911 31.5106 32.8951 31.5897 32.6932 31.6521C32.5094 31.7069 32.345 31.8104 32.2186 31.951C32.0921 32.0916 32.0087 32.2638 31.9775 32.4481C31.7015 32.4747 31.4235 32.4747 31.1475 32.4481C31.1163 32.2638 31.0329 32.0917 30.9065 31.9511C30.7801 31.8105 30.6158 31.7069 30.4321 31.6521C30.23 31.5897 30.0338 31.5106 29.8456 31.4157C29.6755 31.3276 29.4834 31.2876 29.291 31.3002C29.0986 31.3129 28.9138 31.3776 28.7574 31.4872C28.5439 31.3155 28.3474 31.1247 28.1707 30.9173C28.2834 30.7653 28.3501 30.5857 28.3631 30.3988C28.3761 30.2119 28.335 30.0252 28.2443 29.8599C28.1466 29.6773 28.0652 29.487 28.0009 29.291C27.9446 29.1124 27.8381 28.9527 27.6933 28.8298C27.5486 28.7069 27.3713 28.6258 27.1816 28.5955C27.1679 28.4601 27.1612 28.3254 27.1612 28.1923C27.1612 28.0592 27.1679 27.9246 27.1816 27.7891C27.3712 27.7589 27.5484 27.6778 27.6931 27.555C27.8378 27.4321 27.9444 27.2724 28.0006 27.0939Z" fill="#05AC58"/>
<path d="M31.5625 18.5722C31.9977 18.5722 32.4232 18.4469 32.7851 18.212C33.147 17.9771 33.4291 17.6432 33.5956 17.2526C33.7622 16.8619 33.8058 16.4321 33.7209 16.0174C33.636 15.6027 33.4264 15.2218 33.1186 14.9228C32.8108 14.6238 32.4187 14.4202 31.9918 14.3377C31.5649 14.2553 31.1224 14.2976 30.7203 14.4594C30.3182 14.6212 29.9745 14.8952 29.7327 15.2468C29.4909 15.5983 29.3618 16.0116 29.3618 16.4345C29.3625 17.0012 29.5946 17.5446 30.0071 17.9454C30.4197 18.3462 30.979 18.5716 31.5625 18.5722ZM31.5625 15.3656C31.7801 15.3656 31.9928 15.4282 32.1738 15.5457C32.3547 15.6632 32.4958 15.8301 32.5791 16.0254C32.6623 16.2207 32.6841 16.4356 32.6417 16.643C32.5992 16.8503 32.4944 17.0408 32.3405 17.1903C32.1867 17.3398 31.9906 17.4416 31.7772 17.4828C31.5637 17.5241 31.3425 17.5029 31.1414 17.422C30.9403 17.3411 30.7685 17.2041 30.6476 17.0283C30.5267 16.8525 30.4622 16.6459 30.4622 16.4345C30.4624 16.1511 30.5785 15.8793 30.7848 15.6789C30.991 15.4785 31.2707 15.3658 31.5625 15.3656Z" fill="#05AC58"/>
<path d="M19.4588 30.2187C19.8941 30.2187 20.3195 30.0933 20.6814 29.8584C21.0433 29.6235 21.3254 29.2896 21.492 28.899C21.6585 28.5084 21.7021 28.0785 21.6172 27.6638C21.5323 27.2492 21.3227 26.8682 21.0149 26.5693C20.7071 26.2703 20.315 26.0667 19.8881 25.9842C19.4612 25.9017 19.0188 25.944 18.6166 26.1058C18.2145 26.2677 17.8708 26.5417 17.629 26.8932C17.3872 27.2448 17.2581 27.6581 17.2581 28.0809C17.2588 28.6477 17.4909 29.1911 17.9034 29.5918C18.316 29.9926 18.8754 30.2181 19.4588 30.2187ZM19.4588 27.012C19.6764 27.012 19.8892 27.0747 20.0701 27.1922C20.2511 27.3096 20.3921 27.4765 20.4754 27.6719C20.5587 27.8672 20.5805 28.0821 20.538 28.2894C20.4955 28.4968 20.3907 28.6872 20.2369 28.8367C20.083 28.9862 19.8869 29.088 19.6735 29.1293C19.46 29.1705 19.2388 29.1493 19.0377 29.0684C18.8367 28.9875 18.6648 28.8505 18.5439 28.6748C18.423 28.499 18.3585 28.2923 18.3585 28.0809C18.3588 27.7975 18.4748 27.5258 18.6811 27.3254C18.8874 27.125 19.1671 27.0123 19.4588 27.012Z" fill="#05AC58"/>
<path d="M41.4655 28.0809C41.4655 28.5037 41.5946 28.917 41.8364 29.2686C42.0782 29.6202 42.4219 29.8942 42.824 30.056C43.2261 30.2178 43.6686 30.2601 44.0955 30.1776C44.5224 30.0951 44.9145 29.8915 45.2223 29.5926C45.5301 29.2936 45.7397 28.9127 45.8246 28.498C45.9095 28.0833 45.8659 27.6534 45.6993 27.2628C45.5328 26.8722 45.2507 26.5383 44.8888 26.3034C44.5269 26.0685 44.1014 25.9431 43.6662 25.9431C43.0827 25.9438 42.5234 26.1692 42.1108 26.57C41.6983 26.9707 41.4662 27.5141 41.4655 28.0809ZM44.7665 28.0809C44.7665 28.2923 44.702 28.499 44.5811 28.6748C44.4602 28.8505 44.2883 28.9875 44.0873 29.0684C43.8862 29.1493 43.665 29.1705 43.4515 29.1293C43.2381 29.088 43.042 28.9862 42.8881 28.8367C42.7342 28.6872 42.6294 28.4968 42.587 28.2894C42.5445 28.0821 42.5663 27.8672 42.6496 27.6719C42.7329 27.4765 42.8739 27.3096 43.0549 27.1922C43.2358 27.0747 43.4486 27.012 43.6662 27.012C43.9579 27.0123 44.2376 27.125 44.4439 27.3254C44.6502 27.5258 44.7662 27.7975 44.7665 28.0809Z" fill="#05AC58"/>
<path d="M42.6811 25.131L43.7401 24.8403C43.1711 22.874 42.105 21.0772 40.6387 19.6133C39.1725 18.1495 37.3527 17.065 35.3449 16.4587L35.0166 17.4791C36.8497 18.0326 38.5111 19.0226 39.8497 20.359C41.1883 21.6954 42.1617 23.3359 42.6811 25.131Z" fill="#05AC58"/>
<path d="M28.4111 17.3914L28.1118 16.3627C26.0365 16.9408 24.1466 18.0222 22.6199 19.5053C21.0933 20.9883 19.98 22.8242 19.3849 24.8403L20.4439 25.131C20.9872 23.2904 22.0035 21.6143 23.3973 20.2604C24.791 18.9064 26.5164 17.9192 28.4111 17.3914Z" fill="#05AC58"/>
<path d="M40.4906 35.2244L41.3406 35.9035C42.4499 34.5977 43.267 33.0819 43.7401 31.4525L42.6811 31.1618C42.2493 32.6491 41.5033 34.0327 40.4906 35.2244Z" fill="#05AC58"/>
<path d="M20.5385 31.1618L19.4795 31.4525C19.9666 33.1309 20.8187 34.6882 21.9784 36.0193L22.8197 35.3304C21.761 34.1155 20.983 32.6939 20.5385 31.1618Z" fill="#05AC58"/>
<path d="M39.4439 40.6008C39.6654 40.2789 39.7927 39.9046 39.8123 39.518C39.8319 39.1313 39.7431 38.7467 39.5552 38.4052C39.3674 38.0637 39.0876 37.7782 38.7458 37.5792C38.404 37.3801 38.0129 37.275 37.6143 37.275C37.2158 37.275 36.8247 37.3801 36.4829 37.5792C36.1411 37.7782 35.8613 38.0637 35.6734 38.4052C35.4856 38.7467 35.3967 39.1313 35.4163 39.518C35.4359 39.9046 35.5633 40.2789 35.7848 40.6008C35.6052 40.6534 35.433 40.7271 35.2718 40.8202C35.1459 40.4864 34.9363 40.1884 34.662 39.9531C34.3876 39.7178 34.0572 39.5527 33.7006 39.4728C34.0944 39.0037 34.3106 38.4177 34.3133 37.8124C34.3133 37.1037 34.0235 36.424 33.5076 35.9228C32.9918 35.4217 32.2921 35.1402 31.5625 35.1402C30.8329 35.1402 30.1332 35.4217 29.6174 35.9228C29.1015 36.424 28.8117 37.1037 28.8117 37.8124C28.8144 38.4177 29.0306 39.0037 29.4244 39.4728C29.0678 39.5527 28.7374 39.7178 28.463 39.9531C28.1887 40.1884 27.9791 40.4864 27.8532 40.8202C27.692 40.7271 27.5198 40.6534 27.3402 40.6008C27.5617 40.2789 27.6891 39.9046 27.7087 39.518C27.7283 39.1313 27.6394 38.7467 27.4516 38.4052C27.2637 38.0637 26.9839 37.7782 26.6421 37.5792C26.3003 37.3801 25.9092 37.275 25.5107 37.275C25.1121 37.275 24.721 37.3801 24.3792 37.5792C24.0374 37.7782 23.7576 38.0637 23.5698 38.4052C23.3819 38.7467 23.293 39.1313 23.3127 39.518C23.3323 39.9046 23.4596 40.2789 23.6811 40.6008C23.2711 40.7083 22.9073 40.9403 22.6426 41.2628C22.3779 41.5854 22.2262 41.9817 22.2097 42.3938V46.3636C22.2097 46.5053 22.2676 46.6413 22.3708 46.7415C22.474 46.8417 22.6139 46.898 22.7598 46.898H27.7113C27.7113 47.0398 27.7693 47.1757 27.8725 47.2759C27.9756 47.3762 28.1156 47.4325 28.2615 47.4325H34.8635C35.0094 47.4325 35.1494 47.3762 35.2525 47.2759C35.3557 47.1757 35.4137 47.0398 35.4137 46.898H40.3652C40.5111 46.898 40.651 46.8417 40.7542 46.7415C40.8574 46.6413 40.9153 46.5053 40.9153 46.3636V42.3938C40.8988 41.9817 40.7471 41.5854 40.4824 41.2628C40.2177 40.9403 39.8539 40.7083 39.4439 40.6008ZM25.5107 38.3469C25.7283 38.3469 25.941 38.4095 26.122 38.527C26.3029 38.6444 26.444 38.8114 26.5272 39.0067C26.6105 39.202 26.6323 39.4169 26.5899 39.6243C26.5474 39.8316 26.4426 40.0221 26.2887 40.1716C26.1348 40.3211 25.9388 40.4229 25.7253 40.4641C25.5119 40.5054 25.2906 40.4842 25.0896 40.4033C24.8885 40.3224 24.7167 40.1854 24.5958 40.0096C24.4749 39.8338 24.4103 39.6272 24.4103 39.4158C24.4106 39.1323 24.5266 38.8606 24.7329 38.6602C24.9392 38.4598 25.2189 38.3471 25.5107 38.3469ZM27.7113 45.8291H23.31V42.3938C23.345 42.1423 23.4795 41.9139 23.6849 41.7571C23.8903 41.6002 24.1505 41.5272 24.4103 41.5535H26.611C26.8709 41.5272 27.131 41.6002 27.3364 41.7571C27.5418 41.9139 27.6763 42.1423 27.7113 42.3938V45.8291ZM31.5625 36.2091C31.7894 36.2095 32.0137 36.2557 32.2212 36.3446C32.4288 36.4335 32.6152 36.5633 32.7685 36.7257C31.9783 36.5211 31.1467 36.5211 30.3565 36.7257C30.5098 36.5633 30.6962 36.4335 30.9037 36.3446C31.1113 36.2557 31.3356 36.2095 31.5625 36.2091ZM33.1911 38.0226C33.1406 38.4076 32.9473 38.7614 32.6475 39.0178C32.3477 39.2743 31.962 39.4157 31.5625 39.4157C31.163 39.4157 30.7773 39.2743 30.4775 39.0178C30.1777 38.7614 29.9844 38.4076 29.9339 38.0226C30.4386 37.774 30.9966 37.6445 31.5625 37.6445C32.1284 37.6445 32.6864 37.774 33.1911 38.0226ZM32.045 43.5358L31.5625 44.0045L31.08 43.5358L31.5625 41.8957L32.045 43.5358ZM34.3133 46.3636H28.8117V41.5535C28.812 41.2701 28.928 40.9984 29.1343 40.798C29.3406 40.5976 29.6203 40.4849 29.912 40.4846H30.8332L29.9332 43.5444C29.9062 43.6361 29.9049 43.7331 29.9295 43.8254C29.9542 43.9176 30.0038 44.0018 30.0732 44.0692L31.1735 45.1381C31.2246 45.1877 31.2852 45.2271 31.352 45.254C31.4187 45.2809 31.4903 45.2947 31.5625 45.2947C31.6347 45.2947 31.7063 45.2809 31.773 45.254C31.8398 45.2271 31.9004 45.1877 31.9515 45.1381L33.0518 44.0692C33.1212 44.0018 33.1708 43.9176 33.1955 43.8254C33.2201 43.7331 33.2188 43.6361 33.1918 43.5444L32.2918 40.4846H33.213C33.5047 40.4849 33.7844 40.5976 33.9907 40.798C34.197 40.9984 34.313 41.2701 34.3133 41.5535V46.3636ZM37.6143 38.3469C37.832 38.3469 38.0447 38.4095 38.2257 38.527C38.4066 38.6444 38.5476 38.8114 38.6309 39.0067C38.7142 39.202 38.736 39.4169 38.6935 39.6243C38.6511 39.8316 38.5463 40.0221 38.3924 40.1716C38.2385 40.3211 38.0424 40.4229 37.829 40.4641C37.6156 40.5054 37.3943 40.4842 37.1933 40.4033C36.9922 40.3224 36.8203 40.1854 36.6994 40.0096C36.5785 39.8338 36.514 39.6272 36.514 39.4158C36.5143 39.1323 36.6303 38.8606 36.8366 38.6602C37.0429 38.4598 37.3226 38.3471 37.6143 38.3469ZM39.815 45.8291H35.4137V42.3938C35.4487 42.1423 35.5832 41.9139 35.7886 41.7571C35.9939 41.6002 36.2541 41.5272 36.514 41.5535H38.7147C38.9745 41.5272 39.2347 41.6002 39.4401 41.7571C39.6455 41.9139 39.78 42.1423 39.815 42.3938V45.8291Z" fill="#05AC58"/>
</g>
<defs>
<clipPath id="clip0_299_8944">
<rect width="35.2107" height="34.2047" fill="white" transform="translate(13.9572 13.7622)"/>
</clipPath>
</defs>
</svg>
