<svg width="61" height="62" viewBox="0 0 61 62" fill="none" xmlns="http://www.w3.org/2000/svg">
<path opacity="0.21" d="M0.115906 25.0672C0.115906 11.6007 11.0327 0.683929 24.4992 0.683929H36.0938C49.5603 0.683929 60.4771 11.6007 60.4771 25.0672V36.6618C60.4771 50.1284 49.5603 61.0451 36.0938 61.0451H24.4992C11.0327 61.0451 0.115906 50.1284 0.115906 36.6618V25.0672Z" fill="#4AD991"/>
<path d="M20.1615 40.346H40.3585C41.1022 40.346 41.705 40.9489 41.705 41.6925C41.705 42.4361 41.1022 43.039 40.3585 43.039H18.815C18.0713 43.039 17.4685 42.4361 17.4685 41.6925V20.1489C17.4685 19.4053 18.0713 18.8025 18.815 18.8025C19.5586 18.8025 20.1615 19.4053 20.1615 20.1489V40.346Z" fill="#4AD991"/>
<path opacity="0.5" d="M25.1831 34.5345C24.6745 35.077 23.8224 35.1045 23.2799 34.5959C22.7374 34.0873 22.7099 33.2352 23.2185 32.6927L28.2678 27.3068C28.7597 26.7821 29.5771 26.7366 30.1241 27.2034L34.1093 30.6042L39.3017 24.0272C39.7625 23.4435 40.6092 23.3439 41.1929 23.8047C41.7765 24.2655 41.8761 25.1122 41.4153 25.6958L35.3562 33.3707C34.8829 33.9702 34.0064 34.0564 33.4254 33.5606L29.3536 30.086L25.1831 34.5345Z" fill="#4AD991"/>
</svg>
