<svg width="65" height="65" viewBox="0 0 65 65" fill="none" xmlns="http://www.w3.org/2000/svg">
<path opacity="0.3" d="M0.190186 24.9259C0.190186 11.4594 11.107 0.542603 24.5735 0.542603H40.1922C53.6587 0.542603 64.5755 11.4594 64.5755 24.9259V40.5446C64.5755 54.0111 53.6587 64.9279 40.1922 64.9279H24.5735C11.107 64.9279 0.190186 54.0111 0.190186 40.5446V24.9259Z" fill="#FF9066"/>
<g clip-path="url(#clip0_299_8975)">
<path fill-rule="evenodd" clip-rule="evenodd" d="M37.2174 34.4899H27.5049C27.2597 34.4899 27.0522 34.3013 27.0522 34.0561V33.0943C27.0522 31.3404 28.4667 29.9259 30.2206 29.9259H31.2201C31.4653 29.9259 31.6539 30.1145 31.6539 30.3597V31.2838C31.6539 31.661 31.9745 31.9816 32.3517 31.9816C32.7477 31.9816 33.0683 31.661 33.0683 31.2838V30.3597C33.0683 30.1145 33.2569 29.9259 33.5021 29.9259H34.5016C36.2367 29.9259 37.67 31.3404 37.67 33.0943V34.0561C37.67 34.3013 37.4625 34.4899 37.2174 34.4899ZM27.9386 33.6223H36.7836V33.0943C36.7836 31.8307 35.7463 30.8123 34.5016 30.8123H33.9359V31.2838C33.9359 32.1513 33.2381 32.868 32.3517 32.868C31.4842 32.868 30.7675 32.1513 30.7675 31.2838V30.8123H30.2206C28.957 30.8123 27.9386 31.8307 27.9386 33.0943V33.6223Z" fill="#F9622A" stroke="#F9622A" stroke-width="0.212029"/>
<path fill-rule="evenodd" clip-rule="evenodd" d="M32.3518 32.8679C31.4842 32.8679 30.7676 32.1513 30.7676 31.2838V29.511C30.7676 29.3601 30.843 29.2281 30.975 29.1527C31.107 29.0584 31.2579 29.0584 31.3899 29.115C32.0123 29.379 32.7101 29.379 33.3136 29.115C33.4644 29.0584 33.6153 29.0584 33.7473 29.1527C33.8605 29.2281 33.9359 29.3601 33.9359 29.511V31.2838C33.9359 32.1513 33.2381 32.8679 32.3518 32.8679ZM31.654 30.1145V31.2838C31.654 31.661 31.9746 31.9816 32.3518 31.9816C32.7478 31.9816 33.0684 31.661 33.0684 31.2838V30.1145C32.5969 30.2277 32.1066 30.2277 31.654 30.1145Z" fill="#F9622A" stroke="#F9622A" stroke-width="0.212029"/>
<path fill-rule="evenodd" clip-rule="evenodd" d="M32.3517 30.2088C30.5601 30.2088 29.1079 28.7378 29.1079 26.9461V24.9093C29.1079 24.683 29.3154 24.4756 29.5605 24.4756H35.1617C35.4069 24.4756 35.5955 24.683 35.5955 24.9093V26.9461C35.5955 28.7378 34.1433 30.2088 32.3517 30.2088ZM29.9943 25.362V26.9461C29.9943 28.2663 31.0504 29.3224 32.3517 29.3224C33.653 29.3224 34.728 28.2663 34.728 26.9461V25.362H29.9943Z" fill="#F9622A" stroke="#F9622A" stroke-width="0.212029"/>
<path fill-rule="evenodd" clip-rule="evenodd" d="M31.4276 25.362H29.5605C29.3154 25.362 29.1079 25.1546 29.1079 24.9094V23.8156C29.1079 23.3252 29.5228 22.9103 30.0132 22.9103H30.9561C31.4464 22.9103 31.8614 23.3252 31.8614 23.8156V24.9094C31.8614 25.1546 31.6728 25.362 31.4276 25.362ZM29.9943 24.4756H30.975V23.8156C30.975 23.7967 30.975 23.7967 30.9561 23.7967H30.0132C30.0132 23.7967 29.9943 23.7967 29.9943 23.8156V24.4756Z" fill="#F9622A" stroke="#F9622A" stroke-width="0.212029"/>
<path fill-rule="evenodd" clip-rule="evenodd" d="M35.1617 25.362H31.4276C31.1824 25.362 30.9938 25.1546 30.9938 24.9094V23.8156C30.9938 23.3252 31.3899 22.9103 31.8991 22.9103H34.6902C35.1994 22.9103 35.5955 23.3252 35.5955 23.8156V24.9094C35.5955 25.1546 35.4069 25.362 35.1617 25.362ZM31.8614 24.4756H34.728V23.8156C34.728 23.7967 34.7091 23.7967 34.6902 23.7967H31.8991C31.8802 23.7967 31.8614 23.7967 31.8614 23.8156V24.4756Z" fill="#F9622A" stroke="#F9622A" stroke-width="0.212029"/>
<path fill-rule="evenodd" clip-rule="evenodd" d="M44.7044 48.936H19.9989C18.8296 48.936 17.8867 47.9742 17.8867 46.8049V35.7345C17.8867 34.5653 18.8296 33.6223 19.9989 33.6223H44.7044C45.8737 33.6223 46.8355 34.5653 46.8355 35.7345V46.8049C46.8355 47.9742 45.8737 48.936 44.7044 48.936ZM19.9989 34.4898C19.32 34.4898 18.773 35.0556 18.773 35.7345V46.8049C18.773 47.5027 19.32 48.0496 19.9989 48.0496H44.7044C45.4022 48.0496 45.9491 47.5027 45.9491 46.8049V35.7345C45.9491 35.0556 45.4022 34.4898 44.7044 34.4898H19.9989Z" fill="#F9622A" stroke="#F9622A" stroke-width="0.212029"/>
<path fill-rule="evenodd" clip-rule="evenodd" d="M19.5651 34.4898C19.3199 34.4898 19.1313 34.3012 19.1313 34.0561V22.1182C19.1313 21.873 19.3199 21.6656 19.5651 21.6656C19.8103 21.6656 19.9989 21.873 19.9989 22.1182V34.0561C19.9989 34.3012 19.8103 34.4898 19.5651 34.4898Z" fill="#F9622A" stroke="#F9622A" stroke-width="0.212029"/>
<path fill-rule="evenodd" clip-rule="evenodd" d="M45.1571 34.4898C44.9119 34.4898 44.7045 34.3012 44.7045 34.0561V22.1182C44.7045 21.873 44.9119 21.6656 45.1571 21.6656C45.4023 21.6656 45.5908 21.873 45.5908 22.1182V34.0561C45.5908 34.3012 45.4023 34.4898 45.1571 34.4898Z" fill="#F9622A" stroke="#F9622A" stroke-width="0.212029"/>
<path fill-rule="evenodd" clip-rule="evenodd" d="M41.0646 46.126H23.6387C23.5256 46.126 23.4124 46.0882 23.337 46.0128L20.8099 43.4857C20.7344 43.4102 20.6779 43.2971 20.6779 43.1651V39.3744C20.6779 39.2612 20.7344 39.1481 20.8099 39.0726L23.337 36.5455C23.4124 36.4701 23.5256 36.4135 23.6387 36.4135H41.0646C41.1967 36.4135 41.3098 36.4701 41.3853 36.5455L43.9124 39.0726C43.9878 39.1481 44.0444 39.2612 44.0444 39.3744V43.1651C44.0444 43.2971 43.9878 43.3914 43.9124 43.4857L41.3853 46.0128C41.3098 46.0882 41.1967 46.126 41.0646 46.126ZM23.8273 45.2584H40.8949L43.158 42.9953V39.563L40.8949 37.2999H23.8273L21.5642 39.563V42.9953L23.8273 45.2584Z" fill="#F9622A" stroke="#F9622A" stroke-width="0.212029"/>
<path fill-rule="evenodd" clip-rule="evenodd" d="M19.8481 22.5708C18.6222 22.5708 17.6227 21.5713 17.6227 20.3454V17.7994C17.6227 17.2337 18.0942 16.781 18.6599 16.781H21.0551C21.6208 16.781 22.0734 17.2337 22.0734 17.7994V20.3454C22.0923 21.5713 21.0928 22.5708 19.8481 22.5708ZM18.6599 17.6486C18.5656 17.6486 18.5091 17.724 18.5091 17.7994V20.3454C18.5091 21.0998 19.1126 21.7033 19.8481 21.7033C20.6024 21.7033 21.2059 21.0998 21.2059 20.3454V17.7994C21.2059 17.724 21.1305 17.6486 21.0551 17.6486H18.6599Z" fill="#F9622A" stroke="#F9622A" stroke-width="0.212029"/>
<path fill-rule="evenodd" clip-rule="evenodd" d="M23.4312 22.5708C22.2053 22.5708 21.2058 21.5713 21.2058 20.3454V17.7994C21.2058 17.2337 21.6584 16.781 22.2242 16.781H24.6382C25.1851 16.781 25.6566 17.2337 25.6566 17.7994V20.3454C25.6566 21.5713 24.657 22.5708 23.4312 22.5708ZM22.2242 17.6486C22.1488 17.6486 22.0733 17.724 22.0733 17.7994V20.3454C22.0733 21.0998 22.6768 21.7033 23.4312 21.7033C24.1667 21.7033 24.7702 21.0998 24.7702 20.3454V17.7994C24.7702 17.724 24.7136 17.6486 24.6382 17.6486H22.2242Z" fill="#F9622A" stroke="#F9622A" stroke-width="0.212029"/>
<path fill-rule="evenodd" clip-rule="evenodd" d="M26.9956 22.5708C25.7698 22.5708 24.7703 21.5713 24.7703 20.3454V17.7994C24.7703 17.2337 25.2229 16.781 25.7887 16.781H28.2026C28.7684 16.781 29.221 17.2337 29.221 17.7994V20.3454C29.221 21.5713 28.2215 22.5708 26.9956 22.5708ZM25.8075 17.6486C25.7132 17.6486 25.6566 17.724 25.6566 17.7994V20.3454C25.6566 21.0998 26.2601 21.7033 26.9956 21.7033C27.75 21.7033 28.3535 21.0998 28.3535 20.3454V17.7994C28.3535 17.724 28.2781 17.6486 28.2026 17.6486H25.8075Z" fill="#F9622A" stroke="#F9622A" stroke-width="0.212029"/>
<path fill-rule="evenodd" clip-rule="evenodd" d="M30.579 22.5708C29.3531 22.5708 28.3536 21.5713 28.3536 20.3454V17.7994C28.3536 17.2337 28.8062 16.781 29.372 16.781H31.7671C32.3329 16.781 32.8043 17.2337 32.8043 17.7994V20.3454C32.8043 21.5713 31.8048 22.5708 30.579 22.5708ZM29.372 17.6486C29.2965 17.6486 29.2211 17.724 29.2211 17.7994V20.3454C29.2211 21.0998 29.8246 21.7033 30.579 21.7033C31.3145 21.7033 31.918 21.0998 31.918 20.3454V17.7994C31.918 17.724 31.8614 17.6486 31.7859 17.6486H29.372Z" fill="#F9622A" stroke="#F9622A" stroke-width="0.212029"/>
<path fill-rule="evenodd" clip-rule="evenodd" d="M34.1432 22.5708C32.9174 22.5708 31.9178 21.5713 31.9178 20.3454V17.7994C31.9178 17.2337 32.3705 16.781 32.9362 16.781H35.3502C35.916 16.781 36.3686 17.2337 36.3686 17.7994V20.3454C36.3686 21.5713 35.3691 22.5708 34.1432 22.5708ZM32.9362 17.6486C32.8608 17.6486 32.8042 17.724 32.8042 17.7994V20.3454C32.8042 21.0998 33.4077 21.7033 34.1432 21.7033C34.8976 21.7033 35.5011 21.0998 35.5011 20.3454V17.7994C35.5011 17.724 35.4257 17.6486 35.3502 17.6486H32.9362Z" fill="#F9622A" stroke="#F9622A" stroke-width="0.212029"/>
<path fill-rule="evenodd" clip-rule="evenodd" d="M37.7265 22.5708C36.4818 22.5708 35.4823 21.5713 35.4823 20.3454V17.7994C35.4823 17.2337 35.9538 16.781 36.5196 16.781H38.9147C39.4804 16.781 39.9519 17.2337 39.9519 17.7994V20.3454C39.9519 21.5713 38.9524 22.5708 37.7265 22.5708ZM36.5196 17.6486C36.4441 17.6486 36.3687 17.724 36.3687 17.7994V20.3454C36.3687 21.0998 36.9722 21.7033 37.7265 21.7033C38.4621 21.7033 39.0655 21.0998 39.0655 20.3454V17.7994C39.0655 17.724 39.009 17.6486 38.9147 17.6486H36.5196Z" fill="#F9622A" stroke="#F9622A" stroke-width="0.212029"/>
<path fill-rule="evenodd" clip-rule="evenodd" d="M41.2909 22.5708C40.0651 22.5708 39.0656 21.5713 39.0656 20.3454V17.7994C39.0656 17.2337 39.5182 16.781 40.0839 16.781H42.4979C43.0637 16.781 43.5163 17.2337 43.5163 17.7994V20.3454C43.5163 21.5713 42.5168 22.5708 41.2909 22.5708ZM40.0839 17.6486C40.0085 17.6486 39.9519 17.724 39.9519 17.7994V20.3454C39.9519 21.0998 40.5554 21.7033 41.2909 21.7033C42.0264 21.7033 42.6299 21.0998 42.6299 20.3454V17.7994C42.6299 17.724 42.5734 17.6486 42.4979 17.6486H40.0839Z" fill="#F9622A" stroke="#F9622A" stroke-width="0.212029"/>
<path fill-rule="evenodd" clip-rule="evenodd" d="M44.8553 22.5708C43.6294 22.5708 42.6299 21.5713 42.6299 20.3454V17.7994C42.6299 17.2337 43.1014 16.781 43.6671 16.781H46.0623C46.628 16.781 47.0807 17.2337 47.0807 17.7994V20.3454C47.0807 21.5713 46.0811 22.5708 44.8553 22.5708ZM43.6671 17.6486C43.5728 17.6486 43.5163 17.724 43.5163 17.7994V20.3454C43.5163 21.0998 44.1198 21.7033 44.8553 21.7033C45.6096 21.7033 46.2131 21.0998 46.2131 20.3454V17.7994C46.2131 17.724 46.1377 17.6486 46.0623 17.6486H43.6671Z" fill="#F9622A" stroke="#F9622A" stroke-width="0.212029"/>
<path fill-rule="evenodd" clip-rule="evenodd" d="M40.1783 39.563H24.544C24.2988 39.563 24.0914 39.3555 24.0914 39.1103C24.0914 38.8652 24.2988 38.6766 24.544 38.6766H40.1783C40.4234 38.6766 40.612 38.8652 40.612 39.1103C40.612 39.3555 40.4234 39.563 40.1783 39.563Z" fill="#F9622A" stroke="#F9622A" stroke-width="0.212029"/>
<path fill-rule="evenodd" clip-rule="evenodd" d="M40.1783 41.7129H24.544C24.2988 41.7129 24.0914 41.5243 24.0914 41.2791C24.0914 41.034 24.2988 40.8454 24.544 40.8454H40.1783C40.4234 40.8454 40.612 41.034 40.612 41.2791C40.612 41.5243 40.4234 41.7129 40.1783 41.7129Z" fill="#F9622A" stroke="#F9622A" stroke-width="0.212029"/>
<path fill-rule="evenodd" clip-rule="evenodd" d="M40.1783 43.8817H24.544C24.2988 43.8817 24.0914 43.6743 24.0914 43.4291C24.0914 43.1839 24.2988 42.9953 24.544 42.9953H40.1783C40.4234 42.9953 40.612 43.1839 40.612 43.4291C40.612 43.6743 40.4234 43.8817 40.1783 43.8817Z" fill="#F9622A" stroke="#F9622A" stroke-width="0.212029"/>
</g>
<defs>
<clipPath id="clip0_299_8975">
<rect width="32.1926" height="32.1926" fill="white" transform="translate(16.2648 16.7622)"/>
</clipPath>
</defs>
</svg>
