<svg width="230" height="63" viewBox="0 0 230 63" fill="none" xmlns="http://www.w3.org/2000/svg">
<g filter="url(#filter0_d_3400_14038)">
<path d="M114.84 3.52273V4.81303C112.511 4.81303 112.323 5.0648 112.323 7.39365V23.1291C112.323 25.4265 112.511 25.7412 114.84 25.7412V27H106.375V25.7412C108.294 25.7412 108.483 25.4894 108.483 23.2235V15.5761H99.1992V23.2235C99.1992 25.4894 99.3881 25.7412 101.308 25.7412V27H92.8107V25.7412C95.1395 25.7412 95.3598 25.4265 95.3598 23.1291V7.39365C95.3598 5.0648 95.1395 4.81303 92.8107 4.81303V3.52273H101.308V4.81303C99.3881 4.81303 99.1992 5.03333 99.1992 7.26776V14.0025H108.483V7.29923C108.483 5.03333 108.294 4.81303 106.375 4.81303V3.52273H114.84ZM129.936 23.6641L128.709 19.7617H121.25L120.274 23.3179C120.086 24.0103 119.96 24.5453 119.96 24.8915C119.96 25.5838 120.4 25.7412 121.565 25.7412V27H116.246V25.7412C117.316 25.7412 117.725 25.395 118.197 23.9473L124.586 3.05067H126.852L133.838 23.5067C134.468 25.395 134.845 25.7412 135.947 25.7412V27H128.551V25.7412C129.779 25.7412 130.188 25.4894 130.188 24.8915C130.188 24.5767 130.093 24.1676 129.936 23.6641ZM121.785 18.1882H128.205L124.869 7.86571H124.775L121.785 18.1882ZM151.032 21.8073L158.145 3.52273H164.596V4.81303C162.267 4.81303 162.11 5.0648 162.11 7.42512V23.1291C162.11 25.4579 162.299 25.7412 164.628 25.7412V27H155.847V25.7412C158.113 25.7412 158.271 25.4265 158.271 23.1291V7.7713H158.176L150.623 27.1888H149.333L141.591 7.70835H141.497V23.1291C141.497 25.4265 141.685 25.7412 143.825 25.7412V27H137.311V25.7412C139.545 25.7412 139.734 25.4265 139.734 23.1291V7.29923C139.734 5.0648 139.545 4.81303 137.279 4.81303V3.52273H143.605L150.938 21.8073H151.032ZM179.724 23.6641L178.496 19.7617H171.038L170.062 23.3179C169.873 24.0103 169.748 24.5453 169.748 24.8915C169.748 25.5838 170.188 25.7412 171.353 25.7412V27H166.034V25.7412C167.104 25.7412 167.513 25.395 167.985 23.9473L174.374 3.05067H176.64L183.626 23.5067C184.256 25.395 184.633 25.7412 185.735 25.7412V27H178.339V25.7412C179.567 25.7412 179.976 25.4894 179.976 24.8915C179.976 24.5767 179.881 24.1676 179.724 23.6641ZM171.573 18.1882H177.993L174.657 7.86571H174.563L171.573 18.1882ZM187.162 3.52273H195.942C198.963 3.52273 200.883 3.90038 202.488 5.0648C203.904 6.07187 204.754 7.551 204.754 9.69102C204.754 12.5863 202.866 15.1355 199.372 15.7964L203.747 23.5067C204.911 25.4894 205.446 25.7412 206.737 25.7412V27H201.481L195.753 16.3314H193.55V23.1291C193.55 25.5209 193.708 25.7412 195.911 25.7412V27H187.162V25.7412C189.491 25.7412 189.711 25.4265 189.711 23.0976V7.39365C189.711 5.0648 189.491 4.81303 187.162 4.81303V3.52273ZM195.942 5.0648H194.369C193.613 5.0648 193.55 5.37951 193.55 7.04747V14.7578H195.376C198.46 14.7578 200.757 13.6878 200.757 9.69102C200.757 8.27483 200.348 7.04747 199.467 6.19775C198.68 5.47392 197.61 5.0648 195.942 5.0648ZM220.968 23.6641L219.741 19.7617H212.282L211.306 23.3179C211.118 24.0103 210.992 24.5453 210.992 24.8915C210.992 25.5838 211.432 25.7412 212.597 25.7412V27H207.278V25.7412C208.348 25.7412 208.757 25.395 209.229 23.9473L215.618 3.05067H217.884L224.87 23.5067C225.5 25.395 225.877 25.7412 226.979 25.7412V27H219.583V25.7412C220.811 25.7412 221.22 25.4894 221.22 24.8915C221.22 24.5767 221.125 24.1676 220.968 23.6641ZM212.817 18.1882H219.237L215.901 7.86571H215.807L212.817 18.1882ZM103.542 53.6255H103.637L108.389 38.2048C108.578 37.5754 108.672 37.1033 108.672 36.7572C108.672 35.9704 108.168 35.813 107.004 35.813V34.5227H112.448V35.813C111.221 35.813 110.906 36.0963 110.434 37.6069L103.857 58.4721H101.371L94.4157 38.0475C93.7548 36.0648 93.503 35.813 92.1183 35.813V34.5227H99.8916V35.813C98.6328 35.813 98.1607 36.0648 98.1607 36.7572C98.1607 37.1033 98.2866 37.5754 98.4754 38.1733L103.542 53.6255ZM138.946 52.587L137.876 58H122.329V56.7412C124.627 56.7412 124.878 56.4265 124.878 54.1291V38.3936C124.878 36.0648 124.627 35.813 122.329 35.813V34.5227H137.058L138.065 39.7469H136.428C135.61 36.2536 135.264 36.0648 133.502 36.0648H129.851C128.812 36.0648 128.718 36.3166 128.718 37.5439V45.034H132.117C133.533 45.034 133.816 44.6563 133.816 41.824H135.358V49.8805H133.816C133.816 46.8278 133.564 46.6075 132.148 46.6075H128.718V55.0103C128.718 56.3006 128.97 56.4265 129.599 56.4265H134.32C136.145 56.4265 136.491 56.1432 137.309 52.587H138.946ZM149.111 34.5227H155.185L165.476 53.122H165.539V38.3936C165.539 36.0648 165.224 35.813 163.021 35.813V34.5227H169.63V35.813C167.585 35.813 167.301 36.0648 167.301 38.3936V58.3147H164.595L153.391 38.1733H153.328V54.1291C153.328 56.4579 153.549 56.7412 155.72 56.7412V58H149.143V56.7412C151.314 56.7412 151.566 56.4579 151.566 54.1291V38.3622C151.566 36.0019 151.346 35.813 149.111 35.813V34.5227ZM186.336 38.3936V49.9435C186.336 52.7129 186.746 56.6153 191.277 56.6153C195.998 56.6153 196.218 52.2408 196.218 50.0064V38.3936C196.218 36.0333 195.967 35.813 193.984 35.813V34.5227H200.152V35.813C198.201 35.813 197.981 36.0648 197.981 38.3936V50.3211C197.981 53.122 197.414 55.1047 196.092 56.4894C194.865 57.7797 193.103 58.4721 190.585 58.4721C183.221 58.4721 182.466 54.2864 182.466 50.0693V38.3936C182.466 36.0648 182.277 35.813 180.168 35.813V34.5227H188.571V35.813C186.525 35.813 186.336 36.0019 186.336 38.3936ZM227.256 52.587L226.186 58H210.64V56.7412C212.937 56.7412 213.189 56.4265 213.189 54.1291V38.3936C213.189 36.0648 212.937 35.813 210.64 35.813V34.5227H225.368L226.375 39.7469H224.739C223.92 36.2536 223.574 36.0648 221.812 36.0648H218.161C217.123 36.0648 217.028 36.3166 217.028 37.5439V45.034H220.427C221.843 45.034 222.126 44.6563 222.126 41.824H223.669V49.8805H222.126C222.126 46.8278 221.875 46.6075 220.458 46.6075H217.028V55.0103C217.028 56.3006 217.28 56.4265 217.909 56.4265H222.63C224.455 56.4265 224.801 56.1432 225.62 52.587H227.256Z" fill="url(#paint0_linear_3400_14038)"/>
</g>
<path fill-rule="evenodd" clip-rule="evenodd" d="M55.1149 48.1595L65.898 3.67939C65.8925 3.59473 65.8857 3.51375 65.8777 3.43623C65.6023 3.16937 65.2821 2.87831 64.9619 2.58726C64.3044 1.98956 63.6468 1.39186 63.3774 1.00367L64.9623 1.00298V1.00195L66.2584 1.00242L66.547 1.0023L66.5471 1.00195L66.5485 1.0023L67.3386 1.00195V1.00281L69.7156 1.00367C69.3924 1.39186 68.6033 1.98956 67.8143 2.58727C67.3707 2.92329 66.9271 3.25931 66.5662 3.5581C66.5534 3.74292 66.5464 3.94628 66.5464 4.17086C66.4951 4.09698 66.4298 4.0155 66.3531 3.92788L55.3978 49.1184C56.2377 51.9641 57.0822 54.8073 57.9352 57.6462C58.2676 58.7651 58.7342 60.2072 59.2588 61.6081L73.8345 4.08872C73.8322 3.8466 73.8198 3.62992 73.7995 3.4351C73.5244 3.16855 73.2046 2.87791 72.8849 2.58727L72.8848 2.58718L72.8847 2.58714C72.2272 1.98948 71.5697 1.39183 71.3004 1.00367L72.8842 1.00298C72.8842 1.00264 72.8842 1.0023 72.8842 1.00195L74.1809 1.00242L75.2616 1.00195C75.2616 1.00224 75.2616 1.00253 75.2616 1.00281L77.6375 1.00367C77.3143 1.39186 76.5252 1.98956 75.7362 2.58727C75.293 2.92294 74.8499 3.25861 74.4893 3.55718C74.4764 3.74224 74.4693 3.9459 74.4693 4.17086C74.4393 4.12752 74.4043 4.08158 74.3651 4.03331L59.6597 62.0647L59.4078 62.0008L59.4173 62.0253C59.4173 62.0253 58.4022 61.9528 57.854 61.9528C56.802 61.969 55.7528 61.9605 54.7044 61.952C53.0014 61.9383 51.3002 61.9245 49.5912 62.0164C47.3711 62.1358 47.3461 62.0434 46.9314 60.5101C46.8787 60.315 46.8197 60.0967 46.749 59.8525C44.819 53.1834 42.8716 46.5174 40.9165 39.8521H14.6936C14.6936 42.0693 14.6616 44.0701 14.6308 45.9963V45.9963V45.9964V45.9964V45.9965C14.5726 49.641 14.5187 53.018 14.6936 57.0868C14.6967 57.1484 14.6995 57.2123 14.7024 57.2783C14.7568 58.5165 14.844 60.5006 17.6645 62.0251H0C2.77649 61.3298 3.50378 59.6363 3.46265 57.0868C3.39408 53.2488 3.41695 49.2284 3.43981 45.2116V45.2116V45.2115V45.2115V45.2115V45.2114V45.2114C3.45123 43.2044 3.46265 41.1983 3.46265 39.2163H40.7301C39.5376 35.1518 38.3424 31.0875 37.1468 27.023H3.47367V8.12854C3.47367 7.8334 3.49232 7.53217 3.51097 7.231C3.55385 6.5385 3.5967 5.84633 3.41275 5.2294C3.10339 4.20248 2.64793 3.23924 2.19479 2.28088L2.19478 2.28088L2.19478 2.28088L2.19478 2.28087L2.19478 2.28087L2.19478 2.28087C1.99364 1.85547 1.79295 1.43104 1.6057 1.00242H17.6459C14.8236 2.46306 14.6815 4.74253 14.7018 7.17692C14.7422 11.3789 14.729 15.5808 14.7155 19.854C14.7087 22.0175 14.7018 24.1993 14.7018 26.4086H36.9661L36.6151 25.2152C34.8342 19.1611 33.053 13.1061 31.2791 7.04867C30.5522 4.58003 29.7249 2.32125 27.3393 1.02364H42.8917C42.8917 1.64711 42.8493 2.26837 42.8077 2.87885V2.87889V2.87892V2.87895V2.87898C42.7205 4.15876 42.6364 5.39113 42.9526 6.49708C45.4871 15.5374 48.1482 24.5337 50.8072 33.5226L50.8091 33.5293L50.8111 33.5359C51.3456 35.3428 51.8799 37.1493 52.4132 38.9559C53.3121 42.0246 54.2111 45.0933 55.1149 48.1595ZM27.3393 1.02364H27.3V1.00242L27.3393 1.02364Z" fill="url(#paint1_linear_3400_14038)"/>
<line x1="83.8981" y1="1.09455e-08" x2="83.8981" y2="61.0988" stroke="#A7A7A7" stroke-width="0.50081"/>
<defs>
<filter id="filter0_d_3400_14038" x="90.9336" y="3.05078" width="137.507" height="57.7903" filterUnits="userSpaceOnUse" color-interpolation-filters="sRGB">
<feFlood flood-opacity="0" result="BackgroundImageFix"/>
<feColorMatrix in="SourceAlpha" type="matrix" values="0 0 0 0 0 0 0 0 0 0 0 0 0 0 0 0 0 0 127 0" result="hardAlpha"/>
<feOffset dy="1.18469"/>
<feGaussianBlur stdDeviation="0.592344"/>
<feComposite in2="hardAlpha" operator="out"/>
<feColorMatrix type="matrix" values="0 0 0 0 0 0 0 0 0 0 0 0 0 0 0 0 0 0 0.25 0"/>
<feBlend mode="normal" in2="BackgroundImageFix" result="effect1_dropShadow_3400_14038"/>
<feBlend mode="normal" in="SourceGraphic" in2="effect1_dropShadow_3400_14038" result="shape"/>
</filter>
<linearGradient id="paint0_linear_3400_14038" x1="160.902" y1="0" x2="160.902" y2="62" gradientUnits="userSpaceOnUse">
<stop stop-color="#343434"/>
<stop offset="1" stop-color="#454545"/>
</linearGradient>
<linearGradient id="paint1_linear_3400_14038" x1="67.5166" y1="5.31622" x2="-4.34015" y2="19.5545" gradientUnits="userSpaceOnUse">
<stop stop-color="#ED8E00"/>
<stop offset="0.55" stop-color="#FFA800"/>
<stop offset="1" stop-color="#FB6F10"/>
</linearGradient>
</defs>
</svg>
