<svg width="44" height="63" viewBox="0 0 44 63" fill="none" xmlns="http://www.w3.org/2000/svg">
<path d="M43.5868 21.7636C43.5868 33.7527 21.7934 63 21.7934 63C21.7934 63 0 33.7527 0 21.7636C0 9.77454 9.7668 0 21.7934 0C33.82 0 43.5868 9.73636 43.5868 21.7636Z" fill="#052EBE"/>
<path d="M42.2289 21.1145C42.2289 32.2566 33.1979 41.2289 22.1145 41.2289C11.031 41.2289 2 32.1979 2 21.1145C2 10.031 11.031 1 22.1145 1C33.1979 1 42.2289 10.031 42.2289 21.1145Z" fill="#FEFEFE"/>
<g clip-path="url(#clip0_950_57850)">
<path fill-rule="evenodd" clip-rule="evenodd" d="M25.7559 17.603C25.6034 15.546 23.8807 13.9188 21.7853 13.9188C19.6889 13.9188 17.9655 15.5477 17.8145 17.6061L21.8231 17.0671L25.7558 17.603H25.7559Z" fill="#FFCB5B"/>
<path fill-rule="evenodd" clip-rule="evenodd" d="M22.043 11.6756H25.0974V10.3025H22.043V11.6756Z" fill="#CED07D"/>
<path fill-rule="evenodd" clip-rule="evenodd" d="M27.4504 20.8158H26.3438V29.7512H30.9779V20.8158H27.4504ZM27.2678 21.8277C27.2678 21.6854 27.3834 21.5699 27.5256 21.5699H29.7959C29.9382 21.5699 30.0537 21.6855 30.0537 21.8277V24.5C30.0537 24.6423 29.9382 24.7578 29.7959 24.7578H27.5256C27.3833 24.7578 27.2678 24.6421 27.2678 24.5V21.8277ZM27.5256 25.8095H29.7959C29.9382 25.8095 30.0537 25.9251 30.0537 26.0673V28.7396C30.0537 28.8816 29.9382 28.9974 29.7959 28.9974H27.5256C27.3833 28.9974 27.2678 28.8817 27.2678 28.7396V26.0673C27.2678 25.925 27.3834 25.8095 27.5256 25.8095Z" fill="#FE6F69"/>
<path fill-rule="evenodd" clip-rule="evenodd" d="M29.5387 22.0857H27.7842V24.2422H29.5387V22.0857Z" fill="#CED07D"/>
<path fill-rule="evenodd" clip-rule="evenodd" d="M29.5387 26.3251H27.7842V28.4816H29.5387V26.3251Z" fill="#CED07D"/>
<path fill-rule="evenodd" clip-rule="evenodd" d="M23.9384 29.7513V25.3765H22.043V29.7513H23.9384Z" fill="#FE6F69"/>
<path fill-rule="evenodd" clip-rule="evenodd" d="M21.5272 29.7513V25.3765H19.6318V29.7513H21.5272Z" fill="#FE6F69"/>
<path fill-rule="evenodd" clip-rule="evenodd" d="M18.9385 23.4947H24.631V22.182H18.9385V23.4947Z" fill="#FE6F69"/>
<path fill-rule="evenodd" clip-rule="evenodd" d="M15.787 24.2422V22.0857H14.0322V24.2422H15.787Z" fill="#CED07D"/>
<path fill-rule="evenodd" clip-rule="evenodd" d="M15.787 26.3251H14.0322V28.4816H15.787V26.3251Z" fill="#CED07D"/>
<path fill-rule="evenodd" clip-rule="evenodd" d="M13.7737 25.8095H16.0439C16.1862 25.8095 16.3017 25.9251 16.3017 26.0673V28.7396C16.3017 28.8816 16.1865 28.9974 16.0439 28.9974H13.7737C13.6314 28.9974 13.5159 28.8817 13.5159 28.7396V26.0673C13.5159 25.925 13.6314 25.8095 13.7737 25.8095ZM17.226 29.7512V20.8158H12.5918V29.7512H17.226ZM16.0439 24.7578H13.7737C13.6314 24.7578 13.5159 24.6421 13.5159 24.5V21.8277C13.5159 21.6854 13.6314 21.5699 13.7737 21.5699H16.0439C16.1862 21.5699 16.3017 21.6855 16.3017 21.8277V24.5C16.3017 24.6423 16.1865 24.7578 16.0439 24.7578Z" fill="#FE6F69"/>
<path fill-rule="evenodd" clip-rule="evenodd" d="M21.7853 30.2668H12.1152V31.2679H31.4552V30.2668H21.7853Z" fill="#FFCB5B"/>
<path fill-rule="evenodd" clip-rule="evenodd" d="M17.4837 20.3002H27.1926V18.3195L21.7878 17.5828L16.377 18.3195V20.3002H17.4837Z" fill="#0E9AA7"/>
<path fill-rule="evenodd" clip-rule="evenodd" d="M31.4504 30.4818C31.3081 30.4818 31.1926 30.3662 31.1926 30.224V21.0308H12.8065V30.2239C12.8065 30.5633 12.291 30.5632 12.291 30.2239V20.773C12.291 20.6306 12.4065 20.5151 12.5488 20.5151H31.4506C31.5929 20.5151 31.7084 20.6306 31.7084 20.773V30.2239C31.7084 30.3662 31.593 30.4819 31.4506 30.4819L31.4504 30.4818Z" fill="#333333"/>
<path fill-rule="evenodd" clip-rule="evenodd" d="M31.9278 31.9984H12.0723C11.93 31.9984 11.8145 31.8828 11.8145 31.7406V30.2239C11.8145 30.0816 11.93 29.9661 12.0723 29.9661H31.9278C32.0701 29.9661 32.1856 30.0817 32.1856 30.2239V31.7406C32.1856 31.8829 32.0701 31.9984 31.9278 31.9984ZM12.33 31.4828H31.6701V30.4818H12.33V31.4828Z" fill="#333333"/>
<path fill-rule="evenodd" clip-rule="evenodd" d="M26.3012 30.4818C26.1589 30.4818 26.0434 30.3662 26.0434 30.224V21.0308H17.9569V30.2239C17.9569 30.5633 17.4414 30.5632 17.4414 30.2239V20.773C17.4414 20.6306 17.5569 20.5151 17.6992 20.5151H26.3014C26.4437 20.5151 26.5592 20.6306 26.5592 20.773V30.2239C26.5592 30.3662 26.4436 30.4819 26.3013 30.4819L26.3012 30.4818Z" fill="#333333"/>
<path fill-rule="evenodd" clip-rule="evenodd" d="M16.2594 24.9725H13.9893C13.8469 24.9725 13.7314 24.8569 13.7314 24.7147V22.0425C13.7314 21.9002 13.8469 21.7847 13.9893 21.7847H16.2594C16.4017 21.7847 16.5172 21.9003 16.5172 22.0425V24.7147C16.5172 24.857 16.402 24.9725 16.2594 24.9725ZM14.2471 24.457H16.0019V22.3006H14.2471V24.457Z" fill="#333333"/>
<path fill-rule="evenodd" clip-rule="evenodd" d="M16.2594 29.212H13.9893C13.8469 29.212 13.7314 29.0964 13.7314 28.9542V26.282C13.7314 26.1397 13.8469 26.0242 13.9893 26.0242H16.2594C16.4017 26.0242 16.5172 26.1398 16.5172 26.282V28.9542C16.5172 29.0963 16.402 29.212 16.2594 29.212ZM14.2471 28.6963H16.0019V26.5398H14.2471V28.6963Z" fill="#333333"/>
<path fill-rule="evenodd" clip-rule="evenodd" d="M30.0115 24.9725H27.7412C27.5989 24.9725 27.4834 24.8569 27.4834 24.7147V22.0425C27.4834 21.9002 27.599 21.7847 27.7412 21.7847H30.0115C30.1538 21.7847 30.2693 21.9003 30.2693 22.0425V24.7147C30.2693 24.857 30.1538 24.9725 30.0115 24.9725ZM27.9992 24.457H29.7537V22.3006H27.9992V24.457Z" fill="#333333"/>
<path fill-rule="evenodd" clip-rule="evenodd" d="M30.0115 29.212H27.7412C27.5989 29.212 27.4834 29.0964 27.4834 28.9542V26.282C27.4834 26.1397 27.599 26.0242 27.7412 26.0242H30.0115C30.1538 26.0242 30.2693 26.1398 30.2693 26.282V28.9542C30.2693 29.0963 30.1538 29.212 30.0115 29.212ZM27.9992 28.6963H29.7537V26.5398H27.9992V28.6963Z" fill="#333333"/>
<path fill-rule="evenodd" clip-rule="evenodd" d="M24.4106 30.4818C24.2683 30.4818 24.1528 30.3661 24.1528 30.224V25.5912H19.8466V30.224C19.8466 30.5634 19.3311 30.5632 19.3311 30.224V25.3335C19.3311 25.1912 19.4466 25.0757 19.5889 25.0757H24.4106C24.5529 25.0757 24.6684 25.1913 24.6684 25.3335V30.224C24.6684 30.3661 24.5531 30.4818 24.4106 30.4818Z" fill="#333333"/>
<path fill-rule="evenodd" clip-rule="evenodd" d="M22 30.4817C21.8577 30.4817 21.7422 30.3661 21.7422 30.2239V25.3334C21.7422 24.994 22.2578 24.9943 22.2578 25.3334V30.2239C22.2578 30.3661 22.1423 30.4817 22 30.4817Z" fill="#333333"/>
<path fill-rule="evenodd" clip-rule="evenodd" d="M25.1038 24.2253H18.8955C18.7532 24.2253 18.6377 24.1096 18.6377 23.9675V22.1389C18.6377 21.9966 18.7532 21.8811 18.8955 21.8811H25.1038C25.2461 21.8811 25.3616 21.9967 25.3616 22.1389V23.9673C25.3616 24.1096 25.2461 24.2253 25.1038 24.2253ZM19.1533 23.7095H24.8458V22.3969H19.1533V23.7095Z" fill="#333333"/>
<path fill-rule="evenodd" clip-rule="evenodd" d="M27.6653 21.0306C27.523 21.0306 27.4075 20.9151 27.4075 20.7728V18.5342L22.0027 17.7975L16.5917 18.5342V20.773C16.5917 21.1124 16.0762 21.1124 16.0762 20.773V18.309C16.0762 18.1801 16.1714 18.0709 16.2992 18.0535L22.0375 17.282L27.7002 18.0535C27.828 18.0709 27.9232 18.1801 27.9232 18.309V20.7728C27.923 20.9153 27.8075 21.0306 27.6651 21.0306H27.6653Z" fill="#333333"/>
<path fill-rule="evenodd" clip-rule="evenodd" d="M22 14.1337C21.8577 14.1337 21.7422 14.0182 21.7422 13.8759V10.2596C21.7422 9.92015 22.2578 9.92015 22.2578 10.2596V13.8759C22.2578 14.0182 22.1426 14.1337 22 14.1337Z" fill="#333333"/>
<path fill-rule="evenodd" clip-rule="evenodd" d="M25.5699 12.4058H22C21.8577 12.4058 21.7422 12.2903 21.7422 12.148V10.2594C21.7422 10.1171 21.8577 10.0016 22 10.0016H25.5699C25.7123 10.0016 25.8278 10.1171 25.8278 10.2594V12.148C25.8279 12.2903 25.7123 12.4058 25.5699 12.4058ZM22.2578 11.8903H25.3123V10.5173H22.2578V11.8903Z" fill="#333333"/>
<path fill-rule="evenodd" clip-rule="evenodd" d="M19.3316 29.9661V25.3334C19.3316 25.1911 19.4471 25.0756 19.5894 25.0756H24.4111C24.5534 25.0756 24.6689 25.1912 24.6689 25.3334V29.9661H26.0435V21.0306H17.957V29.9661H19.3316ZM25.1044 24.2252H18.8961C18.7538 24.2252 18.6383 24.1096 18.6383 23.9674V22.1389C18.6383 21.9965 18.7538 21.881 18.8961 21.881H25.1044C25.2467 21.881 25.3622 21.9967 25.3622 22.1389V23.9673C25.3622 24.1096 25.2467 24.2252 25.1044 24.2252Z" fill="#CED07D"/>
<path fill-rule="evenodd" clip-rule="evenodd" d="M17.7607 18.3728C17.6184 18.3728 17.5029 18.2573 17.5029 18.115C17.5029 15.6353 19.5204 13.618 22.0001 13.618C24.4794 13.618 26.4968 15.6353 26.4973 18.1147C26.4973 18.4538 25.982 18.4541 25.9816 18.1147C25.9814 15.9194 24.1954 14.1335 22.0001 14.1335C19.8047 14.1335 18.0186 15.9197 18.0186 18.1148C18.0184 18.2571 17.9032 18.3726 17.7607 18.3726V18.3728Z" fill="#333333"/>
</g>
<defs>
<clipPath id="clip0_950_57850">
<rect width="22" height="22" fill="white" transform="translate(11 10)"/>
</clipPath>
</defs>
</svg>
