<svg width="44" height="63" viewBox="0 0 44 63" fill="none" xmlns="http://www.w3.org/2000/svg">
<path d="M43.5868 21.7636C43.5868 33.7527 21.7934 63 21.7934 63C21.7934 63 0 33.7527 0 21.7636C0 9.77454 9.7668 0 21.7934 0C33.82 0 43.5868 9.73636 43.5868 21.7636Z" fill="#269F07"/>
<path d="M42.0453 21.6325C42.0453 32.7746 33.0143 41.747 21.9309 41.747C10.8474 41.747 1.81641 32.716 1.81641 21.6325C1.81641 10.549 10.8474 1.51807 21.9309 1.51807C33.0143 1.51807 42.0453 10.549 42.0453 21.6325Z" fill="#FEFEFE"/>
<g clip-path="url(#clip0_950_57767)">
<path d="M27.6562 27.8906L25.3125 27.1094C25 28.9844 21.7188 30.3906 21.7188 30.3906C21.7188 30.3906 18.5156 28.9062 18.125 27.1094L15.7812 27.8906C14.4531 28.3594 13.5156 29.6094 13.5156 31.0156V33.9063H29.9219V31.0156C29.9219 29.5312 28.9844 28.2812 27.6562 27.8906Z" fill="#A3D86B"/>
<path d="M29.9219 33.8281V30.9375C29.9219 30.3125 29.7656 29.7656 29.4531 29.2188C27.5 29.4531 26.0156 31.0937 26.0156 33.125V33.75H29.9219V33.8281ZM13.5156 33.8281V30.9375C13.5156 30.3125 13.6719 29.7656 13.9844 29.2188C15.9375 29.4531 17.4219 31.0937 17.4219 33.125V33.75H13.5156V33.8281Z" fill="#64BC50"/>
<path d="M19.4531 25.9375C18.5156 25.8594 17.6563 25.625 16.7188 25.3906L15.8594 25.1562V18.5938C15.8594 15.3906 18.5156 12.7344 21.7188 12.7344C24.9219 12.7344 27.5781 15.3906 27.5781 18.5938V25.2344L26.7188 25.4687C25.7812 25.7031 24.9219 25.8594 23.9844 26.0156" fill="#A17852"/>
<path d="M23.9844 23.8281H19.375V26.6406L18.125 27.0312C18.4375 28.9062 21.7188 30.3125 21.7188 30.3125C21.7188 30.3125 24.9219 28.8281 25.3125 27.0312L24.0625 26.6406V23.8281H23.9844Z" fill="#FED8AA"/>
<path d="M18.125 27.4219C17.9688 27.4219 17.8125 27.3438 17.7344 27.1875V27.0313C17.7344 26.875 17.8125 26.7188 17.9688 26.6407C18.2031 26.5625 18.3594 26.7188 18.4375 26.875V27.0313C18.4375 27.1875 18.3594 27.3438 18.2031 27.4219H18.125Z" fill="#40455A"/>
<path d="M25.3125 27.4219H25.1562C25 27.3437 24.9219 27.1875 24.9219 27.0312V26.875C25 26.6406 25.2344 26.5625 25.3906 26.6406C25.5469 26.7187 25.625 26.875 25.625 27.0312V27.1875C25.625 27.3438 25.4688 27.4219 25.3125 27.4219Z" fill="#40455A"/>
<path d="M23.9844 23.8281H19.375V26.6406L18.125 27.0312C18.5156 28.9062 21.7188 30.3125 21.7188 30.3125C21.7188 30.3125 24.9219 28.8281 25.3125 27.0312L24.0625 26.6406V23.8281H23.9844Z" fill="#FED8AA"/>
<path d="M21.7188 30.7031H21.5625C21.4063 30.625 18.125 29.1406 17.7344 27.1094C17.7344 26.9531 17.8125 26.7187 17.9688 26.6406L18.9844 26.3281V23.8281C18.9844 23.5937 19.1406 23.4375 19.375 23.4375H23.9844C24.2188 23.4375 24.375 23.5937 24.375 23.8281V26.3281L25.3906 26.6406C25.5469 26.7187 25.7031 26.875 25.625 27.1094C25.2344 29.1406 21.9531 30.625 21.7969 30.7031H21.7188ZM18.5938 27.2656C19.0625 28.4375 20.8594 29.4531 21.7188 29.8437C22.5781 29.4531 24.2969 28.3594 24.8438 27.2656L23.9062 26.9531C23.75 26.875 23.6719 26.7188 23.6719 26.5625V24.1406H19.8438V26.5625C19.8438 26.7188 19.7656 26.875 19.6094 26.9531L18.5938 27.2656Z" fill="#40455A"/>
<path d="M16.6406 18.9844C16.1719 18.9844 15.8594 19.2969 15.8594 19.7656V20.5469C15.8594 21.0156 16.1719 21.3281 16.6406 21.3281H17.4219V18.9844H16.6406ZM26.7969 18.9844H26.0156V21.3281H26.7969C27.2656 21.3281 27.5781 21.0156 27.5781 20.5469V19.7656C27.5781 19.2969 27.2656 18.9844 26.7969 18.9844Z" fill="#FED8AA"/>
<path d="M20.5469 18.9844C19.6875 18.9844 18.9844 18.2812 18.9844 17.4219C18.9844 18.2812 18.2812 18.9844 17.4219 18.9844V20.9375C17.4219 23.2812 19.375 25.2344 21.7188 25.2344C24.0625 25.2344 26.0156 23.2812 26.0156 20.9375V18.9844H20.5469Z" fill="#FED8AA"/>
<path d="M33.0469 11.1719H29.9219C29.4531 11.1719 29.1406 11.4844 29.1406 11.9531V17.4219C29.1406 17.8906 29.4531 18.2031 29.9219 18.2031H30.7031V19.7656L32.2656 18.2031H33.0469C33.5156 18.2031 33.8281 17.8906 33.8281 17.4219V11.9531C33.8281 11.4844 33.5156 11.1719 33.0469 11.1719ZM11.1719 11.1719H17.4219C17.8906 11.1719 18.2031 11.4844 18.2031 11.9531V15.0781C18.2031 15.5469 17.8906 15.8594 17.4219 15.8594H16.6406V17.4219L14.2969 15.8594H11.1719C10.7031 15.8594 10.3906 15.5469 10.3906 15.0781V11.9531C10.3906 11.4844 10.7031 11.1719 11.1719 11.1719ZM33.8281 27.5781H29.9219C29.4531 27.5781 29.1406 27.2656 29.1406 26.7969V23.6719C29.1406 23.2031 29.4531 22.8906 29.9219 22.8906H30.7031V21.3281L33.0469 22.8906H33.8281C34.2969 22.8906 34.6094 23.2031 34.6094 23.6719V26.7969C34.6094 27.2656 34.2969 27.5781 33.8281 27.5781Z" fill="white"/>
<path d="M33.0469 24.8438H30.7031C30.4688 24.8438 30.3125 24.6875 30.3125 24.4531C30.3125 24.2188 30.4688 24.0625 30.7031 24.0625H33.0469C33.2812 24.0625 33.4375 24.2188 33.4375 24.4531C33.4375 24.6875 33.2812 24.8438 33.0469 24.8438ZM32.2656 26.4062H30.7031C30.4688 26.4062 30.3125 26.25 30.3125 26.0156C30.3125 25.7812 30.4688 25.625 30.7031 25.625H32.2656C32.5 25.625 32.6562 25.7812 32.6562 26.0156C32.6562 26.25 32.5 26.4062 32.2656 26.4062ZM16.6406 13.125H11.9531C11.7187 13.125 11.5625 12.9688 11.5625 12.7344C11.5625 12.5 11.7187 12.3438 11.9531 12.3438H16.6406C16.875 12.3438 17.0312 12.5 17.0312 12.7344C17.0312 12.9688 16.875 13.125 16.6406 13.125ZM15.0781 14.6875H11.9531C11.7187 14.6875 11.5625 14.5312 11.5625 14.2969C11.5625 14.0625 11.7187 13.9062 11.9531 13.9062H15.0781C15.3125 13.9062 15.4688 14.0625 15.4688 14.2969C15.4688 14.5312 15.3125 14.6875 15.0781 14.6875ZM21.7188 25.625C19.1406 25.625 17.0312 23.5156 17.0312 20.9375V19.2969C17.0312 19.0625 17.1875 18.9062 17.4219 18.9062C17.6562 18.9062 17.8125 19.0625 17.8125 19.2969V20.9375C17.8125 23.125 19.5312 24.8438 21.7188 24.8438C23.9062 24.8438 25.625 23.125 25.625 20.9375V19.2969C25.625 19.0625 25.7812 18.9062 26.0156 18.9062C26.25 18.9062 26.4062 19.0625 26.4062 19.2969V20.9375C26.4062 23.5156 24.2969 25.625 21.7188 25.625ZM29.9219 34.2188H13.5156C13.2812 34.2188 13.125 34.0625 13.125 33.8281V30.9375C13.125 29.375 14.1406 27.9687 15.625 27.4219L19.2188 26.25C19.4531 26.1719 19.6094 26.3281 19.6875 26.4844C19.7656 26.6406 19.6094 26.875 19.4531 26.9531L15.8594 28.125C14.6875 28.5938 13.9062 29.6875 13.9062 30.9375V33.4375H29.5312V30.9375C29.5312 29.6875 28.75 28.5938 27.5781 28.2031L23.9062 26.9531C23.6719 26.875 23.5938 26.6406 23.6719 26.4844C23.75 26.25 23.9844 26.1719 24.1406 26.25L27.8125 27.5C29.2969 27.9688 30.3125 29.375 30.3125 31.0156V33.9062C30.3125 34.0625 30.1562 34.2188 29.9219 34.2188Z" fill="#40455A"/>
<path d="M29.9219 34.2188H26.0156C25.7812 34.2188 25.625 34.0625 25.625 33.8281V33.2031C25.625 31.0156 27.2656 29.1406 29.4531 28.9063C29.6094 28.9063 29.7656 28.9844 29.8438 29.0625C30.1562 29.6094 30.3906 30.3125 30.3906 30.9375V33.8281C30.3125 34.0625 30.1562 34.2188 29.9219 34.2188ZM26.4062 33.4375H29.5312V30.9375C29.5312 30.5469 29.4531 30.0781 29.2188 29.6875C27.5781 30 26.3281 31.4844 26.3281 33.2031V33.4375H26.4062ZM17.4219 34.2188H13.5156C13.2812 34.2188 13.125 34.0625 13.125 33.8281V30.9375C13.125 30.3125 13.2812 29.6094 13.6719 29.0625C13.75 28.9062 13.9062 28.8281 14.0625 28.9063C16.25 29.1406 17.8906 31.0156 17.8906 33.2031V33.8281C17.8125 34.0625 17.6562 34.2188 17.4219 34.2188ZM13.9062 33.4375H17.0312V33.2031C17.0312 31.4844 15.7812 30.0781 14.1406 29.6875C13.9844 30.0781 13.9062 30.5469 13.9062 30.9375V33.4375ZM17.4219 21.7188H16.6406C16.0156 21.7188 15.4688 21.1719 15.4688 20.5469V19.7656C15.4688 19.1406 16.0156 18.5938 16.6406 18.5938H17.0312C17.2656 18.5938 17.4219 18.75 17.4219 18.9844C17.4219 19.2188 17.2656 19.375 17.0312 19.375H16.6406C16.4062 19.375 16.25 19.5312 16.25 19.7656V20.5469C16.25 20.7812 16.4062 20.9375 16.6406 20.9375H17.0312V20.1562C17.0312 19.9219 17.1875 19.7656 17.4219 19.7656C17.6562 19.7656 17.8125 19.9219 17.8125 20.1562V21.3281C17.8125 21.5625 17.6562 21.7188 17.4219 21.7188ZM26.7969 21.7188H26.0156C25.7812 21.7188 25.625 21.5625 25.625 21.3281V20.1562C25.625 19.9219 25.7812 19.7656 26.0156 19.7656C26.25 19.7656 26.4062 19.9219 26.4062 20.1562V20.9375H26.7969C27.0312 20.9375 27.1875 20.7812 27.1875 20.5469V19.7656C27.1875 19.5312 27.0312 19.375 26.7969 19.375H26.0156C25.7812 19.375 25.625 19.2188 25.625 18.9844C25.625 18.75 25.7812 18.5938 26.0156 18.5938H26.7969C27.4219 18.5938 27.9688 19.1406 27.9688 19.7656V20.5469C27.9688 21.1719 27.4219 21.7188 26.7969 21.7188Z" fill="#40455A"/>
<path d="M17.4219 19.375H16.6406C16.4062 19.375 16.25 19.2188 16.25 18.9844C16.25 18.75 16.4062 18.5938 16.6406 18.5938H17.4219C18.0469 18.5938 18.5938 18.0469 18.5938 17.4219V16.6406C18.5938 16.4062 18.75 16.25 18.9844 16.25C19.2188 16.25 19.375 16.4062 19.375 16.6406V17.4219C19.375 18.5156 18.5156 19.375 17.4219 19.375Z" fill="#40455A"/>
<path d="M26.0156 19.375H20.5469C19.4531 19.375 18.5938 18.5156 18.5938 17.4219V16.6406C18.5938 16.4062 18.75 16.25 18.9844 16.25C19.2188 16.25 19.375 16.4062 19.375 16.6406V17.4219C19.375 18.0469 19.9219 18.5938 20.5469 18.5938H26.0156C26.25 18.5938 26.4062 18.75 26.4062 18.9844C26.4062 19.2188 26.25 19.375 26.0156 19.375ZM30.7031 20.1562H30.5469C30.3906 20.0781 30.3125 19.9219 30.3125 19.7656V18.5938H29.9219C29.2969 18.5938 28.75 18.0469 28.75 17.4219V11.9531C28.75 11.3281 29.2969 10.7812 29.9219 10.7812H33.0469C33.6719 10.7812 34.2188 11.3281 34.2188 11.9531V17.4219C34.2188 18.0469 33.6719 18.5938 33.0469 18.5938H32.4219L30.9375 20.0781C30.9375 20.0781 30.7812 20.1562 30.7031 20.1562ZM29.9219 11.5625C29.6875 11.5625 29.5312 11.7188 29.5312 11.9531V17.4219C29.5312 17.6562 29.6875 17.8125 29.9219 17.8125H30.7031C30.9375 17.8125 31.0938 17.9688 31.0938 18.2031V18.8281L31.9531 17.9688C32.0312 17.8906 32.1094 17.8906 32.2656 17.8906H33.0469C33.2812 17.8906 33.4375 17.7344 33.4375 17.5V12.0312C33.4375 11.7187 33.2812 11.5625 33.0469 11.5625H29.9219ZM16.6406 17.8125C16.5625 17.8125 16.4844 17.8125 16.4062 17.7344L14.1406 16.25H11.1719C10.5469 16.25 10 15.7031 10 15.0781V11.9531C10 11.3281 10.5469 10.7812 11.1719 10.7812H17.4219C18.0469 10.7812 18.5938 11.3281 18.5938 11.9531V15.0781C18.5938 15.7031 18.0469 16.25 17.4219 16.25H17.0312V17.4219C17.0312 17.5781 16.9531 17.7344 16.7969 17.7344C16.7969 17.8125 16.7188 17.8125 16.6406 17.8125ZM11.1719 11.5625C10.9375 11.5625 10.7812 11.7188 10.7812 11.9531V15.0781C10.7812 15.3125 10.9375 15.4688 11.1719 15.4688H14.2969C14.375 15.4688 14.4531 15.4688 14.5312 15.5469L16.25 16.7188V15.8594C16.25 15.625 16.4062 15.4688 16.6406 15.4688H17.4219C17.6562 15.4688 17.8125 15.3125 17.8125 15.0781V11.9531C17.8125 11.7188 17.6562 11.5625 17.4219 11.5625H11.1719Z" fill="#40455A"/>
<path d="M23.9844 26.3281C23.8281 26.3281 23.5938 26.1719 23.5938 26.0156C23.5938 25.7812 23.75 25.625 23.9062 25.5469C24.8437 25.4688 25.7031 25.2344 26.5625 25L27.1094 24.8438V18.5938C27.1094 15.5469 24.6875 13.125 21.6406 13.125C20.5469 13.125 19.4531 13.4375 18.5156 14.1406V15.0781C18.5937 15.7031 18.0469 16.25 17.4219 16.25H17.0312V17.4219C17.0312 17.5781 16.9531 17.7344 16.7969 17.7344C16.7187 17.8125 16.5625 17.8125 16.4062 17.7344L16.3281 17.6562C16.25 17.9688 16.25 18.2812 16.25 18.5938V24.9219L16.7969 25.0781C17.6562 25.3125 18.5938 25.4688 19.4531 25.625C19.6875 25.625 19.8438 25.8594 19.7656 26.0938C19.7656 26.3281 19.5312 26.4844 19.2969 26.4062C18.3594 26.3281 17.4219 26.0937 16.4844 25.8594L15.7813 25.625C15.625 25.5469 15.4688 25.3906 15.4688 25.2344V18.5938C15.4688 18.0469 15.5469 17.5 15.7031 16.9531C15.7031 16.7969 15.8594 16.7188 15.9375 16.7188H16.25V15.8594C16.25 15.625 16.4062 15.4688 16.6406 15.4688H17.4219C17.6562 15.4688 17.8125 15.3125 17.8125 15.0781V13.9062C17.8125 13.75 17.8906 13.6719 17.9687 13.5937C19.0625 12.8125 20.3906 12.3438 21.7188 12.3438C25.1562 12.3438 27.9688 15.1562 27.9688 18.5938V25.2344C27.9688 25.3906 27.8125 25.5469 27.6562 25.625L26.7969 25.8594C25.9375 26.0156 25 26.25 23.9844 26.3281C24.0625 26.3281 24.0625 26.3281 23.9844 26.3281ZM33.8281 27.9688H29.9219C29.2969 27.9688 28.75 27.4219 28.75 26.7969V23.6719C28.75 23.0469 29.2969 22.5 29.9219 22.5H30.3125V21.3281C30.3125 21.1719 30.3906 21.0156 30.5469 21.0156C30.7031 20.9375 30.8594 20.9375 30.9375 21.0156L33.2031 22.5H33.8281C34.4531 22.5 35 23.0469 35 23.6719V26.7969C35 27.4219 34.4531 27.9688 33.8281 27.9688ZM29.9219 23.2812C29.6875 23.2812 29.5312 23.4375 29.5312 23.6719V26.7969C29.5312 27.0312 29.6875 27.1875 29.9219 27.1875H33.8281C34.0625 27.1875 34.2188 27.0312 34.2188 26.7969V23.6719C34.2188 23.4375 34.0625 23.2812 33.8281 23.2812H33.0469C32.9688 23.2812 32.8906 23.2812 32.8125 23.2031L31.0938 22.0312V22.8906C31.0938 23.125 30.9375 23.2812 30.7031 23.2812H29.9219ZM31.4844 15.4688C31.25 15.4688 31.0938 15.3125 31.0938 15.0781V14.8437C31.0938 14.375 31.3281 14.0625 31.6406 13.8281C31.7969 13.8281 31.875 13.6719 31.875 13.5156C31.875 13.2812 31.7188 13.125 31.4844 13.125C31.25 13.125 31.0938 13.2812 31.0938 13.5156C31.0938 13.75 30.9375 13.9062 30.7031 13.9062C30.4688 13.9062 30.3125 13.75 30.3125 13.5156C30.3125 12.8906 30.8594 12.3438 31.4844 12.3438C32.1094 12.3438 32.6562 12.8906 32.6562 13.5156C32.6562 13.9844 32.4219 14.375 32.0312 14.5313C31.9531 14.6094 31.875 14.6875 31.875 14.8437V15.0781C31.875 15.3125 31.7188 15.4688 31.4844 15.4688ZM31.4844 17.0312C31.25 17.0312 31.0938 16.875 31.0938 16.6406C31.0938 16.4062 31.25 16.25 31.4844 16.25C31.7188 16.25 31.875 16.4062 31.875 16.6406C31.875 16.875 31.7188 17.0312 31.4844 17.0312Z" fill="#40455A"/>
</g>
<defs>
<clipPath id="clip0_950_57767">
<rect width="25" height="25" fill="white" transform="translate(10 10)"/>
</clipPath>
</defs>
</svg>
