<svg width="44" height="63" viewBox="0 0 44 63" fill="none" xmlns="http://www.w3.org/2000/svg">
<path d="M43.5868 21.7636C43.5868 33.7527 21.7934 63 21.7934 63C21.7934 63 0 33.7527 0 21.7636C0 9.77454 9.7668 0 21.7934 0C33.82 0 43.5868 9.73636 43.5868 21.7636Z" fill="#CA0303"/>
<path d="M42.0453 21.6325C42.0453 32.7746 33.0143 41.747 21.9309 41.747C10.8474 41.747 1.81641 32.716 1.81641 21.6325C1.81641 10.549 10.8474 1.51807 21.9309 1.51807C33.0143 1.51807 42.0453 10.549 42.0453 21.6325Z" fill="#FEFEFE"/>
<path d="M26.5321 21.6089C26.4011 21.6089 26.2949 21.5027 26.2949 21.3717V16.3905C26.2949 16.2595 26.4011 16.1533 26.5321 16.1533C26.6631 16.1533 26.7693 16.2595 26.7693 16.3905V21.3717C26.7693 21.5027 26.6631 21.6089 26.5321 21.6089Z" fill="#3F4751"/>
<path d="M14.9091 21.6089C14.7781 21.6089 14.6719 21.5027 14.6719 21.3717V16.3905C14.6719 16.2595 14.7781 16.1533 14.9091 16.1533C15.0401 16.1533 15.1463 16.2595 15.1463 16.3905V21.3717C15.1463 21.5027 15.0401 21.6089 14.9091 21.6089Z" fill="#3F4751"/>
<path d="M24.0416 20.1855V21.3715H20.958V20.1855H21.6696H24.0416Z" fill="#FFD400"/>
<path d="M24.7525 18.9995V20.1855H24.0409H21.6689V18.9995H24.7525Z" fill="#F88F19"/>
<path d="M18.3489 18.0508H16.6885V21.3716H18.3489V18.0508Z" fill="#07CC66"/>
<path d="M27.3622 21.3716V23.2059C26.6791 23.2059 14.7718 23.2059 14.0791 23.2059V21.3716C16.3873 21.3716 25.8554 21.3716 27.3622 21.3716Z" fill="#A85120"/>
<path d="M14.0791 23.032C14.7713 23.032 26.6791 23.032 27.3622 23.032C27.3622 23.8604 27.3622 28.4365 27.3622 29.1992C27.3571 29.1992 14.5692 29.1992 14.0791 29.1992C14.0791 28.5152 14.0791 23.6979 14.0791 23.032Z" fill="#C86D36"/>
<path d="M17.8739 26.8271C19.1838 26.8271 20.2459 27.8893 20.2459 29.1991C20.2459 30.5089 19.1838 31.5711 17.8739 31.5711C16.5641 31.5711 15.502 30.5089 15.502 29.1991C15.502 27.8893 16.5641 26.8271 17.8739 26.8271Z" fill="#3F4751"/>
<path d="M22.144 24.4551H20.958V26.5899H22.144V24.4551Z" fill="#E9EFFF"/>
<path d="M25.9387 24.4551H22.1436V26.5899H25.9387V24.4551Z" fill="#9BD8F9"/>
<path d="M11.7066 26.8273C12.2306 26.8273 12.6554 26.4025 12.6554 25.8785C12.6554 25.3545 12.2306 24.9297 11.7066 24.9297C11.1826 24.9297 10.7578 25.3545 10.7578 25.8785C10.7578 26.4025 11.1826 26.8273 11.7066 26.8273Z" fill="#3256C1"/>
<path d="M30.4457 17.102C31.2317 17.102 31.8688 16.4648 31.8688 15.6788C31.8688 14.8928 31.2317 14.2556 30.4457 14.2556C29.6596 14.2556 29.0225 14.8928 29.0225 15.6788C29.0225 16.4648 29.6596 17.102 30.4457 17.102Z" fill="#3256C1"/>
<path d="M17.8745 30.3852C18.5295 30.3852 19.0605 29.8542 19.0605 29.1992C19.0605 28.5442 18.5295 28.0132 17.8745 28.0132C17.2195 28.0132 16.6885 28.5442 16.6885 29.1992C16.6885 29.8542 17.2195 30.3852 17.8745 30.3852Z" fill="#33383F"/>
<path d="M29.9712 29.1992H28.7852V31.5712H29.9712V29.1992Z" fill="#3F4751"/>
<path d="M30.8017 28.0132C31.129 28.0132 31.3947 28.2788 31.3947 28.6062C31.3947 28.7698 31.3283 28.9183 31.2211 29.0255C31.1138 29.1328 30.9654 29.1992 30.8017 29.1992H29.9715H28.7855H27.3623V28.0132H30.8017Z" fill="#33383F"/>
<path d="M27.3616 13.0221V15.5601C27.3616 16.0189 26.9901 16.3903 26.5314 16.3903C26.0726 16.3903 25.7012 16.0189 25.7012 15.5601V11.8835H26.223C26.8516 11.8835 27.3616 12.3935 27.3616 13.0221Z" fill="#E80054"/>
<path d="M24.0413 11.8835V15.5601C24.0413 16.0189 23.6698 16.3903 23.2111 16.3903C22.7523 16.3903 22.3809 16.0189 22.3809 15.5601V11.8835H24.0413Z" fill="#E80054"/>
<path d="M20.72 11.8835V15.5601C20.72 16.0189 20.3485 16.3903 19.8898 16.3903C19.431 16.3903 19.0596 16.0189 19.0596 15.5601V11.8835H20.72Z" fill="#E80054"/>
<path d="M17.3996 11.8835V15.5601C17.3996 16.0189 17.0282 16.3903 16.5695 16.3903C16.1107 16.3903 15.7393 16.0189 15.7393 15.5601V11.8835H17.3996Z" fill="#E80054"/>
<path d="M25.7014 11.8835V15.5601C25.7014 16.0189 25.33 16.3903 24.8712 16.3903C24.4125 16.3903 24.041 16.0189 24.041 15.5601V11.8835H25.7014Z" fill="#FF4155"/>
<path d="M22.3811 11.8835V15.5601C22.3811 16.0189 22.0096 16.3903 21.5509 16.3903C21.0922 16.3903 20.7207 16.0189 20.7207 15.5601V11.8835H22.3811Z" fill="#FF4155"/>
<path d="M19.0598 11.8835V15.5601C19.0598 16.0189 18.6884 16.3903 18.2296 16.3903C17.7709 16.3903 17.3994 16.0189 17.3994 15.5601V11.8835H19.0598Z" fill="#FF4155"/>
<path d="M15.7395 11.8835V15.5601C15.7395 16.0189 15.368 16.3903 14.9093 16.3903C14.4506 16.3903 14.0791 16.0189 14.0791 15.5601V13.0221C14.0791 12.3935 14.5891 11.8835 15.2177 11.8835H15.7395Z" fill="#FF4155"/>
<path d="M30.5638 24.4552C30.7603 24.4552 30.9196 24.296 30.9196 24.0995C30.9196 23.9029 30.7603 23.7437 30.5638 23.7437C30.3673 23.7437 30.208 23.9029 30.208 24.0995C30.208 24.296 30.3673 24.4552 30.5638 24.4552Z" fill="#9BD8F9"/>
<path d="M30.3265 11.4094C30.523 11.4094 30.6823 11.2501 30.6823 11.0536C30.6823 10.8571 30.523 10.6978 30.3265 10.6978C30.13 10.6978 29.9707 10.8571 29.9707 11.0536C29.9707 11.2501 30.13 11.4094 30.3265 11.4094Z" fill="#9BD8F9"/>
<path d="M28.6663 18.9997C28.8628 18.9997 29.0221 18.8404 29.0221 18.6439C29.0221 18.4474 28.8628 18.2881 28.6663 18.2881C28.4698 18.2881 28.3105 18.4474 28.3105 18.6439C28.3105 18.8404 28.4698 18.9997 28.6663 18.9997Z" fill="#9BD8F9"/>
<path d="M12.7738 17.5763C12.9703 17.5763 13.1296 17.417 13.1296 17.2205C13.1296 17.024 12.9703 16.8647 12.7738 16.8647C12.5773 16.8647 12.418 17.024 12.418 17.2205C12.418 17.417 12.5773 17.5763 12.7738 17.5763Z" fill="#9BD8F9"/>
<path d="M11.5882 23.0319C11.7847 23.0319 11.944 22.8726 11.944 22.6761C11.944 22.4796 11.7847 22.3203 11.5882 22.3203C11.3917 22.3203 11.2324 22.4796 11.2324 22.6761C11.2324 22.8726 11.3917 23.0319 11.5882 23.0319Z" fill="#9BD8F9"/>
<path d="M11.3509 12.1208C11.5474 12.1208 11.7067 11.9615 11.7067 11.765C11.7067 11.5685 11.5474 11.4092 11.3509 11.4092C11.1544 11.4092 10.9951 11.5685 10.9951 11.765C10.9951 11.9615 11.1544 12.1208 11.3509 12.1208Z" fill="#9BD8F9"/>
<path d="M32.1061 31.334H31.1573H29.9713H11.9442C11.8132 31.334 11.707 31.4402 11.707 31.5712C11.707 31.7022 11.8132 31.8084 11.9442 31.8084H29.9713H31.1573H32.1061C32.2372 31.8084 32.3433 31.7022 32.3433 31.5712C32.3433 31.4402 32.2372 31.334 32.1061 31.334Z" fill="#33383F"/>
<path d="M18.8231 24.218H14.0791V24.6924H18.8231C18.9541 24.6924 19.0603 24.5862 19.0603 24.4552C19.0603 24.3242 18.9541 24.218 18.8231 24.218Z" fill="#A85120"/>
<path d="M16.6883 25.6411H14.0791V26.1155H16.6883C16.8193 26.1155 16.9255 26.0093 16.9255 25.8783C16.9255 25.7473 16.8193 25.6411 16.6883 25.6411Z" fill="#A85120"/>
</svg>
